<?xml version="1.0" encoding="UTF-8" standalone="no"?>
<!DOCTYPE svg PUBLIC "-//W3C//DTD SVG 1.1//EN"
 "http://www.w3.org/Graphics/SVG/1.1/DTD/svg11.dtd">
<!-- Generated by graphviz version 2.40.1 (20161225.0304)
 -->
<!-- Title: dependencies Pages: 1 -->
<svg width="3871pt" height="499pt"
 viewBox="0.00 0.00 3871.00 499.00" xmlns="http://www.w3.org/2000/svg" xmlns:xlink="http://www.w3.org/1999/xlink">
<g id="graph0" class="graph" transform="scale(1 1) rotate(0) translate(4 495)">
<title>dependencies</title>
<polygon fill="#ffffff" stroke="transparent" points="-4,4 -4,-495 3867,-495 3867,4 -4,4"/>
<text text-anchor="start" x="1910.5091" y="-42.4" font-family="sans-serif" font-weight="bold" font-size="14.00" fill="#000000">Legend</text>
<polygon fill="#ffffb3" stroke="transparent" points="1697.5,-10 1697.5,-30 1717.5,-30 1717.5,-10 1697.5,-10"/>
<text text-anchor="start" x="1721.129" y="-15.4" font-family="sans-serif" font-size="14.00" fill="#000000"> &#160;Declarations</text>
<polygon fill="#8dd3c7" stroke="transparent" points="1810.5,-10 1810.5,-30 1830.5,-30 1830.5,-10 1810.5,-10"/>
<text text-anchor="start" x="1834.2251" y="-15.4" font-family="sans-serif" font-size="14.00" fill="#000000"> &#160;Module</text>
<polygon fill="#80b1d3" stroke="transparent" points="1896.5,-10 1896.5,-30 1916.5,-30 1916.5,-10 1896.5,-10"/>
<text text-anchor="start" x="1920.2812" y="-15.4" font-family="sans-serif" font-size="14.00" fill="#000000"> &#160;Bootstrap</text>
<polygon fill="#fdb462" stroke="transparent" points="1993.5,-10 1993.5,-30 2013.5,-30 2013.5,-10 1993.5,-10"/>
<text text-anchor="start" x="2017.1732" y="-15.4" font-family="sans-serif" font-size="14.00" fill="#000000"> &#160;Providers</text>
<polygon fill="#fb8072" stroke="transparent" points="2089.5,-10 2089.5,-30 2109.5,-30 2109.5,-10 2089.5,-10"/>
<text text-anchor="start" x="2113.2258" y="-15.4" font-family="sans-serif" font-size="14.00" fill="#000000"> &#160;Exports</text>
<g id="clust1" class="cluster">
<title>cluster_AppModule</title>
<polygon fill="none" stroke="#000000" stroke-dasharray="1,5" points="1709,-214 1709,-483 2023,-483 2023,-214 1709,-214"/>
</g>
<g id="clust2" class="cluster">
<title>cluster_AppModule_declarations</title>
<polygon fill="none" stroke="#000000" points="1893,-290 1893,-342 2015,-342 2015,-290 1893,-290"/>
</g>
<g id="clust4" class="cluster">
<title>cluster_AppModule_imports</title>
<polygon fill="none" stroke="#000000" points="1717,-222 1717,-342 1871,-342 1871,-222 1717,-222"/>
</g>
<g id="clust6" class="cluster">
<title>cluster_AppModule_bootstrap</title>
<polygon fill="none" stroke="#000000" points="1820,-423 1820,-475 1944,-475 1944,-423 1820,-423"/>
</g>
<g id="clust14" class="cluster">
<title>cluster_ComponentModule</title>
<polygon fill="none" stroke="#000000" stroke-dasharray="1,5" points="1078,-214 1078,-415 1701,-415 1701,-214 1078,-214"/>
</g>
<g id="clust15" class="cluster">
<title>cluster_ComponentModule_declarations</title>
<polygon fill="none" stroke="#000000" points="1096,-222 1096,-274 1691,-274 1691,-222 1096,-222"/>
</g>
<g id="clust21" class="cluster">
<title>cluster_ComponentModule_exports</title>
<polygon fill="none" stroke="#000000" points="1086,-355 1086,-407 1693,-407 1693,-355 1086,-355"/>
</g>
<g id="clust24" class="cluster">
<title>cluster_DataTableModule</title>
<polygon fill="none" stroke="#000000" stroke-dasharray="1,5" points="3394,-70 3394,-282 3855,-282 3855,-70 3394,-70"/>
</g>
<g id="clust25" class="cluster">
<title>cluster_DataTableModule_declarations</title>
<polygon fill="none" stroke="#000000" points="3405,-78 3405,-130 3835,-130 3835,-78 3405,-78"/>
</g>
<g id="clust31" class="cluster">
<title>cluster_DataTableModule_exports</title>
<polygon fill="none" stroke="#000000" points="3402,-222 3402,-274 3847,-274 3847,-222 3402,-222"/>
</g>
<g id="clust34" class="cluster">
<title>cluster_SharedModule</title>
<polygon fill="none" stroke="#000000" stroke-dasharray="1,5" points="8,-138 8,-206 3386,-206 3386,-138 8,-138"/>
</g>
<g id="clust35" class="cluster">
<title>cluster_SharedModule_declarations</title>
<polygon fill="none" stroke="#000000" points="2181,-146 2181,-198 3378,-198 3378,-146 2181,-146"/>
</g>
<g id="clust44" class="cluster">
<title>cluster_SharedModule_exports</title>
<polygon fill="none" stroke="#000000" points="813,-146 813,-198 2173,-198 2173,-146 813,-146"/>
</g>
<g id="clust46" class="cluster">
<title>cluster_SharedModule_providers</title>
<polygon fill="none" stroke="#000000" points="16,-146 16,-198 805,-198 805,-146 16,-146"/>
</g>
<!-- AppComponent -->
<g id="node1" class="node">
<title>AppComponent</title>
<polygon fill="#ffffb3" stroke="#000000" points="2006.9399,-334 1901.0601,-334 1901.0601,-298 2006.9399,-298 2006.9399,-334"/>
<text text-anchor="middle" x="1954" y="-311.8" font-family="Times,serif" font-size="14.00" fill="#000000">AppComponent</text>
</g>
<!-- AppModule -->
<g id="node2" class="node">
<title>AppModule</title>
<polygon fill="#8dd3c7" stroke="#000000" points="1923.6571,-399 1920.6571,-403 1899.6571,-403 1896.6571,-399 1840.3429,-399 1840.3429,-363 1923.6571,-363 1923.6571,-399"/>
<text text-anchor="middle" x="1882" y="-376.8" font-family="Times,serif" font-size="14.00" fill="#000000">AppModule</text>
</g>
<!-- AppComponent&#45;&gt;AppModule -->
<g id="edge1" class="edge">
<title>AppComponent&#45;&gt;AppModule</title>
<path fill="none" stroke="#000000" d="M1912.5544,-334.1061C1912.5544,-334.1061 1912.5544,-352.991 1912.5544,-352.991"/>
<polygon fill="#000000" stroke="#000000" points="1909.0544,-352.9909 1912.5544,-362.991 1916.0544,-352.991 1909.0544,-352.9909"/>
</g>
<!-- AppComponent  -->
<g id="node5" class="node">
<title>AppComponent </title>
<polygon fill="#80b1d3" stroke="#000000" points="1936.439,-467 1827.561,-467 1827.561,-431 1936.439,-431 1936.439,-467"/>
<text text-anchor="middle" x="1882" y="-444.8" font-family="Times,serif" font-size="14.00" fill="#000000">AppComponent </text>
</g>
<!-- AppModule&#45;&gt;AppComponent  -->
<g id="edge4" class="edge">
<title>AppModule&#45;&gt;AppComponent </title>
<path fill="none" stroke="#000000" stroke-dasharray="1,5" d="M1882,-399.2228C1882,-399.2228 1882,-420.7269 1882,-420.7269"/>
<polygon fill="#000000" stroke="#000000" points="1878.5001,-420.7269 1882,-430.7269 1885.5001,-420.727 1878.5001,-420.7269"/>
</g>
<!-- CommonPageModule -->
<g id="node3" class="node">
<title>CommonPageModule</title>
<polygon fill="#8dd3c7" stroke="#000000" points="1863.3795,-334 1860.3795,-338 1839.3795,-338 1836.3795,-334 1724.6205,-334 1724.6205,-298 1863.3795,-298 1863.3795,-334"/>
<text text-anchor="middle" x="1794" y="-311.8" font-family="Times,serif" font-size="14.00" fill="#000000">CommonPageModule</text>
</g>
<!-- CommonPageModule&#45;&gt;AppModule -->
<g id="edge2" class="edge">
<title>CommonPageModule&#45;&gt;AppModule</title>
<path fill="none" stroke="#000000" d="M1851.8058,-334.1061C1851.8058,-334.1061 1851.8058,-352.991 1851.8058,-352.991"/>
<polygon fill="#000000" stroke="#000000" points="1848.3058,-352.9909 1851.8058,-362.991 1855.3058,-352.991 1848.3058,-352.9909"/>
</g>
<!-- SharedModule -->
<g id="node4" class="node">
<title>SharedModule</title>
<polygon fill="#8dd3c7" stroke="#000000" points="1843.4231,-266 1840.4231,-270 1819.4231,-270 1816.4231,-266 1744.5769,-266 1744.5769,-230 1843.4231,-230 1843.4231,-266"/>
<text text-anchor="middle" x="1794" y="-243.8" font-family="Times,serif" font-size="14.00" fill="#000000">SharedModule</text>
</g>
<!-- SharedModule&#45;&gt;AppModule -->
<g id="edge3" class="edge">
<title>SharedModule&#45;&gt;AppModule</title>
<path fill="none" stroke="#000000" d="M1843.2223,-263C1860.7225,-263 1876.171,-263 1876.171,-263 1876.171,-263 1876.171,-352.8211 1876.171,-352.8211"/>
<polygon fill="#000000" stroke="#000000" points="1872.671,-352.8211 1876.171,-362.8211 1879.671,-352.8211 1872.671,-352.8211"/>
</g>
<!-- SharedModule&#45;&gt;CommonPageModule -->
<g id="edge5" class="edge">
<title>SharedModule&#45;&gt;CommonPageModule</title>
<path fill="none" stroke="#000000" d="M1794,-266.2228C1794,-266.2228 1794,-287.7269 1794,-287.7269"/>
<polygon fill="#000000" stroke="#000000" points="1790.5001,-287.7269 1794,-297.7269 1797.5001,-287.727 1790.5001,-287.7269"/>
</g>
<!-- ComponentModule -->
<g id="node10" class="node">
<title>ComponentModule</title>
<polygon fill="#8dd3c7" stroke="#000000" points="1522.3823,-334 1519.3823,-338 1498.3823,-338 1495.3823,-334 1397.6177,-334 1397.6177,-298 1522.3823,-298 1522.3823,-334"/>
<text text-anchor="middle" x="1460" y="-311.8" font-family="Times,serif" font-size="14.00" fill="#000000">ComponentModule</text>
</g>
<!-- SharedModule&#45;&gt;ComponentModule -->
<g id="edge10" class="edge">
<title>SharedModule&#45;&gt;ComponentModule</title>
<path fill="none" stroke="#000000" d="M1744.7777,-254C1727.2775,-254 1711.8291,-254 1711.8291,-254 1711.8291,-254 1711.8291,-316 1711.8291,-316 1711.8291,-316 1532.5734,-316 1532.5734,-316"/>
<polygon fill="#000000" stroke="#000000" points="1532.5735,-312.5001 1522.5734,-316 1532.5734,-319.5001 1532.5735,-312.5001"/>
</g>
<!-- ConcatStringPipe  -->
<g id="node31" class="node">
<title>ConcatStringPipe </title>
<polygon fill="#fb8072" stroke="#000000" points="2165.2689,-190 2046.7311,-190 2046.7311,-154 2165.2689,-154 2165.2689,-190"/>
<text text-anchor="middle" x="2106" y="-167.8" font-family="Times,serif" font-size="14.00" fill="#000000">ConcatStringPipe </text>
</g>
<!-- SharedModule&#45;&gt;ConcatStringPipe  -->
<g id="edge31" class="edge">
<title>SharedModule&#45;&gt;ConcatStringPipe </title>
<path fill="none" stroke="#000000" stroke-dasharray="5,2" d="M1843.4373,-236C1931.4129,-236 2106,-236 2106,-236 2106,-236 2106,-200.1686 2106,-200.1686"/>
<polygon fill="#000000" stroke="#000000" points="2109.5001,-200.1686 2106,-190.1686 2102.5001,-200.1687 2109.5001,-200.1686"/>
</g>
<!-- DataTableModule  -->
<g id="node32" class="node">
<title>DataTableModule </title>
<polygon fill="#fb8072" stroke="#000000" points="2028.8491,-190 1907.1509,-190 1907.1509,-154 2028.8491,-154 2028.8491,-190"/>
<text text-anchor="middle" x="1968" y="-167.8" font-family="Times,serif" font-size="14.00" fill="#000000">DataTableModule </text>
</g>
<!-- SharedModule&#45;&gt;DataTableModule  -->
<g id="edge32" class="edge">
<title>SharedModule&#45;&gt;DataTableModule </title>
<path fill="none" stroke="#000000" stroke-dasharray="5,2" d="M1843.3546,-233C1891.3363,-233 1957.0226,-233 1957.0226,-233 1957.0226,-233 1957.0226,-200.302 1957.0226,-200.302"/>
<polygon fill="#000000" stroke="#000000" points="1960.5227,-200.302 1957.0226,-190.302 1953.5227,-200.302 1960.5227,-200.302"/>
</g>
<!-- MydeqAlertModalComponent  -->
<g id="node33" class="node">
<title>MydeqAlertModalComponent </title>
<polygon fill="#fb8072" stroke="#000000" points="1888.8045,-190 1699.1955,-190 1699.1955,-154 1888.8045,-154 1888.8045,-190"/>
<text text-anchor="middle" x="1794" y="-167.8" font-family="Times,serif" font-size="14.00" fill="#000000">MydeqAlertModalComponent </text>
</g>
<!-- SharedModule&#45;&gt;MydeqAlertModalComponent  -->
<g id="edge33" class="edge">
<title>SharedModule&#45;&gt;MydeqAlertModalComponent </title>
<path fill="none" stroke="#000000" stroke-dasharray="5,2" d="M1834.2636,-229.9891C1834.2636,-229.9891 1834.2636,-200.145 1834.2636,-200.145"/>
<polygon fill="#000000" stroke="#000000" points="1837.7637,-200.145 1834.2636,-190.145 1830.7637,-200.1451 1837.7637,-200.145"/>
</g>
<!-- MydeqFooterComponent  -->
<g id="node34" class="node">
<title>MydeqFooterComponent </title>
<polygon fill="#fb8072" stroke="#000000" points="1681.54,-190 1520.46,-190 1520.46,-154 1681.54,-154 1681.54,-190"/>
<text text-anchor="middle" x="1601" y="-167.8" font-family="Times,serif" font-size="14.00" fill="#000000">MydeqFooterComponent </text>
</g>
<!-- SharedModule&#45;&gt;MydeqFooterComponent  -->
<g id="edge34" class="edge">
<title>SharedModule&#45;&gt;MydeqFooterComponent </title>
<path fill="none" stroke="#000000" stroke-dasharray="5,2" d="M1744.6178,-242C1718.6947,-242 1692.2553,-242 1692.2553,-242 1692.2553,-242 1692.2553,-172 1692.2553,-172 1692.2553,-172 1691.2084,-172 1691.2084,-172"/>
<polygon fill="#000000" stroke="#000000" points="1691.7871,-168.5001 1681.7871,-172 1691.7871,-175.5001 1691.7871,-168.5001"/>
</g>
<!-- MydeqHeaderComponent  -->
<g id="node35" class="node">
<title>MydeqHeaderComponent </title>
<polygon fill="#fb8072" stroke="#000000" points="1502.4026,-190 1337.5974,-190 1337.5974,-154 1502.4026,-154 1502.4026,-190"/>
<text text-anchor="middle" x="1420" y="-167.8" font-family="Times,serif" font-size="14.00" fill="#000000">MydeqHeaderComponent </text>
</g>
<!-- SharedModule&#45;&gt;MydeqHeaderComponent  -->
<g id="edge35" class="edge">
<title>SharedModule&#45;&gt;MydeqHeaderComponent </title>
<path fill="none" stroke="#000000" stroke-dasharray="5,2" d="M1825.3162,-229.7181C1825.3162,-214.0522 1825.3162,-194 1825.3162,-194 1825.3162,-194 1443.3414,-194 1443.3414,-194 1443.3414,-194 1443.3414,-193.6168 1443.3414,-193.6168"/>
<polygon fill="#000000" stroke="#000000" points="1446.8416,-200.1678 1443.3414,-190.1679 1439.8416,-200.168 1446.8416,-200.1678"/>
</g>
<!-- PageNotFoundComponent  -->
<g id="node36" class="node">
<title>PageNotFoundComponent </title>
<polygon fill="#fb8072" stroke="#000000" points="1319.3241,-190 1150.6759,-190 1150.6759,-154 1319.3241,-154 1319.3241,-190"/>
<text text-anchor="middle" x="1235" y="-167.8" font-family="Times,serif" font-size="14.00" fill="#000000">PageNotFoundComponent </text>
</g>
<!-- SharedModule&#45;&gt;PageNotFoundComponent  -->
<g id="edge36" class="edge">
<title>SharedModule&#45;&gt;PageNotFoundComponent </title>
<path fill="none" stroke="#000000" stroke-dasharray="5,2" d="M1816.3687,-229.9489C1816.3687,-215.627 1816.3687,-198 1816.3687,-198 1816.3687,-198 1280.6822,-198 1280.6822,-198 1280.6822,-198 1280.6822,-197.2058 1280.6822,-197.2058"/>
<polygon fill="#000000" stroke="#000000" points="1284.1823,-200.0578 1280.6822,-190.0579 1277.1823,-200.0579 1284.1823,-200.0578"/>
</g>
<!-- PhonePipe  -->
<g id="node37" class="node">
<title>PhonePipe </title>
<polygon fill="#fb8072" stroke="#000000" points="1132.8859,-190 1053.1141,-190 1053.1141,-154 1132.8859,-154 1132.8859,-190"/>
<text text-anchor="middle" x="1093" y="-167.8" font-family="Times,serif" font-size="14.00" fill="#000000">PhonePipe </text>
</g>
<!-- SharedModule&#45;&gt;PhonePipe  -->
<g id="edge37" class="edge">
<title>SharedModule&#45;&gt;PhonePipe </title>
<path fill="none" stroke="#000000" stroke-dasharray="5,2" d="M1807.4212,-229.8196C1807.4212,-216.9618 1807.4212,-202 1807.4212,-202 1807.4212,-202 1118.4914,-202 1118.4914,-202 1118.4914,-202 1118.4914,-200.1432 1118.4914,-200.1432"/>
<polygon fill="#000000" stroke="#000000" points="1121.9915,-200.1432 1118.4914,-190.1432 1114.9915,-200.1432 1121.9915,-200.1432"/>
</g>
<!-- SessionTimeOutModalComponent  -->
<g id="node38" class="node">
<title>SessionTimeOutModalComponent </title>
<polygon fill="#fb8072" stroke="#000000" points="1035.205,-190 820.795,-190 820.795,-154 1035.205,-154 1035.205,-190"/>
<text text-anchor="middle" x="928" y="-167.8" font-family="Times,serif" font-size="14.00" fill="#000000">SessionTimeOutModalComponent </text>
</g>
<!-- SharedModule&#45;&gt;SessionTimeOutModalComponent  -->
<g id="edge38" class="edge">
<title>SharedModule&#45;&gt;SessionTimeOutModalComponent </title>
<path fill="none" stroke="#000000" stroke-dasharray="5,2" d="M1798.4737,-229.9445C1798.4737,-218.561 1798.4737,-206 1798.4737,-206 1798.4737,-206 928,-206 928,-206 928,-206 928,-200.1944 928,-200.1944"/>
<polygon fill="#000000" stroke="#000000" points="931.5001,-200.1944 928,-190.1944 924.5001,-200.1945 931.5001,-200.1944"/>
</g>
<!-- HistoryComponent -->
<g id="node6" class="node">
<title>HistoryComponent</title>
<polygon fill="#ffffb3" stroke="#000000" points="1682.8258,-266 1559.1742,-266 1559.1742,-230 1682.8258,-230 1682.8258,-266"/>
<text text-anchor="middle" x="1621" y="-243.8" font-family="Times,serif" font-size="14.00" fill="#000000">HistoryComponent</text>
</g>
<!-- HistoryComponent&#45;&gt;ComponentModule -->
<g id="edge6" class="edge">
<title>HistoryComponent&#45;&gt;ComponentModule</title>
<path fill="none" stroke="#000000" d="M1600.4458,-266.0225C1600.4458,-283.3734 1600.4458,-307 1600.4458,-307 1600.4458,-307 1532.4195,-307 1532.4195,-307"/>
<polygon fill="#000000" stroke="#000000" points="1532.4195,-303.5001 1522.4195,-307 1532.4194,-310.5001 1532.4195,-303.5001"/>
</g>
<!-- InventoryListComponent -->
<g id="node7" class="node">
<title>InventoryListComponent</title>
<polygon fill="#ffffb3" stroke="#000000" points="1541.5379,-266 1384.4621,-266 1384.4621,-230 1541.5379,-230 1541.5379,-266"/>
<text text-anchor="middle" x="1463" y="-243.8" font-family="Times,serif" font-size="14.00" fill="#000000">InventoryListComponent</text>
</g>
<!-- InventoryListComponent&#45;&gt;ComponentModule -->
<g id="edge7" class="edge">
<title>InventoryListComponent&#45;&gt;ComponentModule</title>
<path fill="none" stroke="#000000" d="M1460,-266.2228C1460,-266.2228 1460,-287.7269 1460,-287.7269"/>
<polygon fill="#000000" stroke="#000000" points="1456.5001,-287.7269 1460,-297.7269 1463.5001,-287.727 1456.5001,-287.7269"/>
</g>
<!-- ReviewComponent -->
<g id="node8" class="node">
<title>ReviewComponent</title>
<polygon fill="#ffffb3" stroke="#000000" points="1366.0954,-266 1241.9046,-266 1241.9046,-230 1366.0954,-230 1366.0954,-266"/>
<text text-anchor="middle" x="1304" y="-243.8" font-family="Times,serif" font-size="14.00" fill="#000000">ReviewComponent</text>
</g>
<!-- ReviewComponent&#45;&gt;ComponentModule -->
<g id="edge8" class="edge">
<title>ReviewComponent&#45;&gt;ComponentModule</title>
<path fill="none" stroke="#000000" d="M1321.8492,-266.0336C1321.8492,-283.0597 1321.8492,-306 1321.8492,-306 1321.8492,-306 1387.392,-306 1387.392,-306"/>
<polygon fill="#000000" stroke="#000000" points="1387.392,-309.5001 1397.392,-306 1387.392,-302.5001 1387.392,-309.5001"/>
</g>
<!-- SearchComponent -->
<g id="node9" class="node">
<title>SearchComponent</title>
<polygon fill="#ffffb3" stroke="#000000" points="1223.9201,-266 1104.0799,-266 1104.0799,-230 1223.9201,-230 1223.9201,-266"/>
<text text-anchor="middle" x="1164" y="-243.8" font-family="Times,serif" font-size="14.00" fill="#000000">SearchComponent</text>
</g>
<!-- SearchComponent&#45;&gt;ComponentModule -->
<g id="edge9" class="edge">
<title>SearchComponent&#45;&gt;ComponentModule</title>
<path fill="none" stroke="#000000" d="M1220.0847,-266.1061C1220.0847,-285.3391 1220.0847,-313 1220.0847,-313 1220.0847,-313 1387.5914,-313 1387.5914,-313"/>
<polygon fill="#000000" stroke="#000000" points="1387.5914,-316.5001 1397.5914,-313 1387.5913,-309.5001 1387.5914,-316.5001"/>
</g>
<!-- HistoryComponent  -->
<g id="node11" class="node">
<title>HistoryComponent </title>
<polygon fill="#fb8072" stroke="#000000" points="1685.3255,-399 1558.6745,-399 1558.6745,-363 1685.3255,-363 1685.3255,-399"/>
<text text-anchor="middle" x="1622" y="-376.8" font-family="Times,serif" font-size="14.00" fill="#000000">HistoryComponent </text>
</g>
<!-- ComponentModule&#45;&gt;HistoryComponent  -->
<g id="edge11" class="edge">
<title>ComponentModule&#45;&gt;HistoryComponent </title>
<path fill="none" stroke="#000000" stroke-dasharray="5,2" d="M1522.4807,-325C1574.9978,-325 1641.5542,-325 1641.5542,-325 1641.5542,-325 1641.5542,-352.973 1641.5542,-352.973"/>
<polygon fill="#000000" stroke="#000000" points="1638.0543,-352.973 1641.5542,-362.973 1645.0543,-352.973 1638.0543,-352.973"/>
</g>
<!-- InventoryListComponent  -->
<g id="node12" class="node">
<title>InventoryListComponent </title>
<polygon fill="#fb8072" stroke="#000000" points="1540.5372,-399 1379.4628,-399 1379.4628,-363 1540.5372,-363 1540.5372,-399"/>
<text text-anchor="middle" x="1460" y="-376.8" font-family="Times,serif" font-size="14.00" fill="#000000">InventoryListComponent </text>
</g>
<!-- ComponentModule&#45;&gt;InventoryListComponent  -->
<g id="edge12" class="edge">
<title>ComponentModule&#45;&gt;InventoryListComponent </title>
<path fill="none" stroke="#000000" stroke-dasharray="5,2" d="M1460,-334.1061C1460,-334.1061 1460,-352.991 1460,-352.991"/>
<polygon fill="#000000" stroke="#000000" points="1456.5001,-352.9909 1460,-362.991 1463.5001,-352.991 1456.5001,-352.9909"/>
</g>
<!-- ReviewComponent  -->
<g id="node13" class="node">
<title>ReviewComponent </title>
<polygon fill="#fb8072" stroke="#000000" points="1361.596,-399 1234.404,-399 1234.404,-363 1361.596,-363 1361.596,-399"/>
<text text-anchor="middle" x="1298" y="-376.8" font-family="Times,serif" font-size="14.00" fill="#000000">ReviewComponent </text>
</g>
<!-- ComponentModule&#45;&gt;ReviewComponent  -->
<g id="edge13" class="edge">
<title>ComponentModule&#45;&gt;ReviewComponent </title>
<path fill="none" stroke="#000000" stroke-dasharray="5,2" d="M1397.4593,-327C1346.1418,-327 1281.9008,-327 1281.9008,-327 1281.9008,-327 1281.9008,-352.7181 1281.9008,-352.7181"/>
<polygon fill="#000000" stroke="#000000" points="1278.4009,-352.718 1281.9008,-362.7181 1285.4009,-352.7181 1278.4009,-352.718"/>
</g>
<!-- SearchComponent  -->
<g id="node14" class="node">
<title>SearchComponent </title>
<polygon fill="#fb8072" stroke="#000000" points="1216.4194,-399 1093.5806,-399 1093.5806,-363 1216.4194,-363 1216.4194,-399"/>
<text text-anchor="middle" x="1155" y="-376.8" font-family="Times,serif" font-size="14.00" fill="#000000">SearchComponent </text>
</g>
<!-- ComponentModule&#45;&gt;SearchComponent  -->
<g id="edge14" class="edge">
<title>ComponentModule&#45;&gt;SearchComponent </title>
<path fill="none" stroke="#000000" stroke-dasharray="5,2" d="M1397.5535,-320C1309.742,-320 1160.375,-320 1160.375,-320 1160.375,-320 1160.375,-352.698 1160.375,-352.698"/>
<polygon fill="#000000" stroke="#000000" points="1156.8751,-352.698 1160.375,-362.698 1163.8751,-352.698 1156.8751,-352.698"/>
</g>
<!-- BootstrapPaginator -->
<g id="node15" class="node">
<title>BootstrapPaginator</title>
<polygon fill="#ffffb3" stroke="#000000" points="3827.0912,-122 3702.9088,-122 3702.9088,-86 3827.0912,-86 3827.0912,-122"/>
<text text-anchor="middle" x="3765" y="-99.8" font-family="Times,serif" font-size="14.00" fill="#000000">BootstrapPaginator</text>
</g>
<!-- DataTableModule -->
<g id="node19" class="node">
<title>DataTableModule</title>
<polygon fill="#8dd3c7" stroke="#000000" points="3607.8487,-190 3604.8487,-194 3583.8487,-194 3580.8487,-190 3490.1513,-190 3490.1513,-154 3607.8487,-154 3607.8487,-190"/>
<text text-anchor="middle" x="3549" y="-167.8" font-family="Times,serif" font-size="14.00" fill="#000000">DataTableModule</text>
</g>
<!-- BootstrapPaginator&#45;&gt;DataTableModule -->
<g id="edge15" class="edge">
<title>BootstrapPaginator&#45;&gt;DataTableModule</title>
<path fill="none" stroke="#000000" d="M3707.0794,-122.2667C3707.0794,-140.5552 3707.0794,-166 3707.0794,-166 3707.0794,-166 3617.8629,-166 3617.8629,-166"/>
<polygon fill="#000000" stroke="#000000" points="3617.863,-162.5001 3607.8629,-166 3617.8629,-169.5001 3617.863,-162.5001"/>
</g>
<!-- DataTable -->
<g id="node16" class="node">
<title>DataTable</title>
<polygon fill="#ffffb3" stroke="#000000" points="3685.2994,-122 3610.7006,-122 3610.7006,-86 3685.2994,-86 3685.2994,-122"/>
<text text-anchor="middle" x="3648" y="-99.8" font-family="Times,serif" font-size="14.00" fill="#000000">DataTable</text>
</g>
<!-- DataTable&#45;&gt;DataTableModule -->
<g id="edge16" class="edge">
<title>DataTable&#45;&gt;DataTableModule</title>
<path fill="none" stroke="#000000" d="M3610.5805,-104C3604.6944,-104 3600.5088,-104 3600.5088,-104 3600.5088,-104 3600.5088,-143.7772 3600.5088,-143.7772"/>
<polygon fill="#000000" stroke="#000000" points="3597.0089,-143.7772 3600.5088,-153.7772 3604.0089,-143.7773 3597.0089,-143.7772"/>
</g>
<!-- DefaultSorter -->
<g id="node17" class="node">
<title>DefaultSorter</title>
<polygon fill="#ffffb3" stroke="#000000" points="3593.1868,-122 3500.8132,-122 3500.8132,-86 3593.1868,-86 3593.1868,-122"/>
<text text-anchor="middle" x="3547" y="-99.8" font-family="Times,serif" font-size="14.00" fill="#000000">DefaultSorter</text>
</g>
<!-- DefaultSorter&#45;&gt;DataTableModule -->
<g id="edge17" class="edge">
<title>DefaultSorter&#45;&gt;DataTableModule</title>
<path fill="none" stroke="#000000" d="M3547,-122.2228C3547,-122.2228 3547,-143.7269 3547,-143.7269"/>
<polygon fill="#000000" stroke="#000000" points="3543.5001,-143.7269 3547,-153.7269 3550.5001,-143.727 3543.5001,-143.7269"/>
</g>
<!-- Paginator -->
<g id="node18" class="node">
<title>Paginator</title>
<polygon fill="#ffffb3" stroke="#000000" points="3482.6545,-122 3413.3455,-122 3413.3455,-86 3482.6545,-86 3482.6545,-122"/>
<text text-anchor="middle" x="3448" y="-99.8" font-family="Times,serif" font-size="14.00" fill="#000000">Paginator</text>
</g>
<!-- Paginator&#45;&gt;DataTableModule -->
<g id="edge18" class="edge">
<title>Paginator&#45;&gt;DataTableModule</title>
<path fill="none" stroke="#000000" d="M3483.0134,-104C3490.1316,-104 3495.4912,-104 3495.4912,-104 3495.4912,-104 3495.4912,-143.7772 3495.4912,-143.7772"/>
<polygon fill="#000000" stroke="#000000" points="3491.9913,-143.7772 3495.4912,-153.7772 3498.9913,-143.7773 3491.9913,-143.7772"/>
</g>
<!-- DataTableModule&#45;&gt;SharedModule -->
<g id="edge30" class="edge">
<title>DataTableModule&#45;&gt;SharedModule</title>
<path fill="none" stroke="#000000" d="M3489.9446,-172C3444.8535,-172 3390.4038,-172 3390.4038,-172 3390.4038,-172 3390.4038,-260 3390.4038,-260 3390.4038,-260 1853.5277,-260 1853.5277,-260"/>
<polygon fill="#000000" stroke="#000000" points="1853.5278,-256.5001 1843.5277,-260 1853.5277,-263.5001 1853.5278,-256.5001"/>
</g>
<!-- BootstrapPaginator  -->
<g id="node20" class="node">
<title>BootstrapPaginator </title>
<polygon fill="#fb8072" stroke="#000000" points="3838.5919,-266 3711.4081,-266 3711.4081,-230 3838.5919,-230 3838.5919,-266"/>
<text text-anchor="middle" x="3775" y="-243.8" font-family="Times,serif" font-size="14.00" fill="#000000">BootstrapPaginator </text>
</g>
<!-- DataTableModule&#45;&gt;BootstrapPaginator  -->
<g id="edge19" class="edge">
<title>DataTableModule&#45;&gt;BootstrapPaginator </title>
<path fill="none" stroke="#000000" stroke-dasharray="5,2" d="M3607.9895,-178C3673.1931,-178 3769.125,-178 3769.125,-178 3769.125,-178 3769.125,-219.9733 3769.125,-219.9733"/>
<polygon fill="#000000" stroke="#000000" points="3765.6251,-219.9732 3769.125,-229.9733 3772.6251,-219.9733 3765.6251,-219.9732"/>
</g>
<!-- DataTable  -->
<g id="node21" class="node">
<title>DataTable </title>
<polygon fill="#fb8072" stroke="#000000" points="3692.7991,-266 3615.2009,-266 3615.2009,-230 3692.7991,-230 3692.7991,-266"/>
<text text-anchor="middle" x="3654" y="-243.8" font-family="Times,serif" font-size="14.00" fill="#000000">DataTable </text>
</g>
<!-- DataTableModule&#45;&gt;DataTable  -->
<g id="edge20" class="edge">
<title>DataTableModule&#45;&gt;DataTable </title>
<path fill="none" stroke="#000000" stroke-dasharray="5,2" d="M3602.3838,-190.0109C3602.3838,-212.4852 3602.3838,-248 3602.3838,-248 3602.3838,-248 3605.1429,-248 3605.1429,-248"/>
<polygon fill="#000000" stroke="#000000" points="3605.1429,-251.5001 3615.1429,-248 3605.1428,-244.5001 3605.1429,-251.5001"/>
</g>
<!-- DefaultSorter  -->
<g id="node22" class="node">
<title>DefaultSorter </title>
<polygon fill="#fb8072" stroke="#000000" points="3596.6871,-266 3501.3129,-266 3501.3129,-230 3596.6871,-230 3596.6871,-266"/>
<text text-anchor="middle" x="3549" y="-243.8" font-family="Times,serif" font-size="14.00" fill="#000000">DefaultSorter </text>
</g>
<!-- DataTableModule&#45;&gt;DefaultSorter  -->
<g id="edge21" class="edge">
<title>DataTableModule&#45;&gt;DefaultSorter </title>
<path fill="none" stroke="#000000" stroke-dasharray="5,2" d="M3549,-190.0109C3549,-190.0109 3549,-219.855 3549,-219.855"/>
<polygon fill="#000000" stroke="#000000" points="3545.5001,-219.8549 3549,-229.855 3552.5001,-219.855 3545.5001,-219.8549"/>
</g>
<!-- Paginator  -->
<g id="node23" class="node">
<title>Paginator </title>
<polygon fill="#fb8072" stroke="#000000" points="3483.6538,-266 3410.3462,-266 3410.3462,-230 3483.6538,-230 3483.6538,-266"/>
<text text-anchor="middle" x="3447" y="-243.8" font-family="Times,serif" font-size="14.00" fill="#000000">Paginator </text>
</g>
<!-- DataTableModule&#45;&gt;Paginator  -->
<g id="edge22" class="edge">
<title>DataTableModule&#45;&gt;Paginator </title>
<path fill="none" stroke="#000000" stroke-dasharray="5,2" d="M3495.6162,-190.0109C3495.6162,-212.4852 3495.6162,-248 3495.6162,-248 3495.6162,-248 3493.8476,-248 3493.8476,-248"/>
<polygon fill="#000000" stroke="#000000" points="3493.8476,-244.5001 3483.8476,-248 3493.8475,-251.5001 3493.8476,-244.5001"/>
</g>
<!-- ConcatStringPipe -->
<g id="node24" class="node">
<title>ConcatStringPipe</title>
<polygon fill="#ffffb3" stroke="#000000" points="3370.2688,-190 3255.7312,-190 3255.7312,-154 3370.2688,-154 3370.2688,-190"/>
<text text-anchor="middle" x="3313" y="-167.8" font-family="Times,serif" font-size="14.00" fill="#000000">ConcatStringPipe</text>
</g>
<!-- ConcatStringPipe&#45;&gt;SharedModule -->
<g id="edge23" class="edge">
<title>ConcatStringPipe&#45;&gt;SharedModule</title>
<path fill="none" stroke="#000000" d="M3313,-190.0263C3313,-214.9773 3313,-257 3313,-257 3313,-257 1853.247,-257 1853.247,-257"/>
<polygon fill="#000000" stroke="#000000" points="1853.247,-253.5001 1843.247,-257 1853.247,-260.5001 1853.247,-253.5001"/>
</g>
<!-- MydeqAlertModalComponent -->
<g id="node25" class="node">
<title>MydeqAlertModalComponent</title>
<polygon fill="#ffffb3" stroke="#000000" points="3237.3046,-190 3050.6954,-190 3050.6954,-154 3237.3046,-154 3237.3046,-190"/>
<text text-anchor="middle" x="3144" y="-167.8" font-family="Times,serif" font-size="14.00" fill="#000000">MydeqAlertModalComponent</text>
</g>
<!-- MydeqAlertModalComponent&#45;&gt;SharedModule -->
<g id="edge24" class="edge">
<title>MydeqAlertModalComponent&#45;&gt;SharedModule</title>
<path fill="none" stroke="#000000" d="M3144,-190.1985C3144,-214.3563 3144,-254 3144,-254 3144,-254 1853.2458,-254 1853.2458,-254"/>
<polygon fill="#000000" stroke="#000000" points="1853.2458,-250.5001 1843.2458,-254 1853.2457,-257.5001 1853.2458,-250.5001"/>
</g>
<!-- MydeqFooterComponent -->
<g id="node26" class="node">
<title>MydeqFooterComponent</title>
<polygon fill="#ffffb3" stroke="#000000" points="3032.5407,-190 2875.4593,-190 2875.4593,-154 3032.5407,-154 3032.5407,-190"/>
<text text-anchor="middle" x="2954" y="-167.8" font-family="Times,serif" font-size="14.00" fill="#000000">MydeqFooterComponent</text>
</g>
<!-- MydeqFooterComponent&#45;&gt;SharedModule -->
<g id="edge25" class="edge">
<title>MydeqFooterComponent&#45;&gt;SharedModule</title>
<path fill="none" stroke="#000000" d="M2954,-190.3228C2954,-213.6602 2954,-251 2954,-251 2954,-251 1853.4727,-251 1853.4727,-251"/>
<polygon fill="#000000" stroke="#000000" points="1853.4727,-247.5001 1843.4727,-251 1853.4726,-254.5001 1853.4727,-247.5001"/>
</g>
<!-- MydeqHeaderComponent -->
<g id="node27" class="node">
<title>MydeqHeaderComponent</title>
<polygon fill="#ffffb3" stroke="#000000" points="2857.9031,-190 2696.0969,-190 2696.0969,-154 2857.9031,-154 2857.9031,-190"/>
<text text-anchor="middle" x="2777" y="-167.8" font-family="Times,serif" font-size="14.00" fill="#000000">MydeqHeaderComponent</text>
</g>
<!-- MydeqHeaderComponent&#45;&gt;SharedModule -->
<g id="edge26" class="edge">
<title>MydeqHeaderComponent&#45;&gt;SharedModule</title>
<path fill="none" stroke="#000000" d="M2777,-190.0109C2777,-212.4852 2777,-248 2777,-248 2777,-248 1853.4208,-248 1853.4208,-248"/>
<polygon fill="#000000" stroke="#000000" points="1853.4208,-244.5001 1843.4208,-248 1853.4208,-251.5001 1853.4208,-244.5001"/>
</g>
<!-- PageNotFoundComponent -->
<g id="node28" class="node">
<title>PageNotFoundComponent</title>
<polygon fill="#ffffb3" stroke="#000000" points="2678.8243,-190 2513.1757,-190 2513.1757,-154 2678.8243,-154 2678.8243,-190"/>
<text text-anchor="middle" x="2596" y="-167.8" font-family="Times,serif" font-size="14.00" fill="#000000">PageNotFoundComponent</text>
</g>
<!-- PageNotFoundComponent&#45;&gt;SharedModule -->
<g id="edge27" class="edge">
<title>PageNotFoundComponent&#45;&gt;SharedModule</title>
<path fill="none" stroke="#000000" d="M2596,-190.0449C2596,-211.6623 2596,-245 2596,-245 2596,-245 1853.262,-245 1853.262,-245"/>
<polygon fill="#000000" stroke="#000000" points="1853.2621,-241.5001 1843.262,-245 1853.262,-248.5001 1853.2621,-241.5001"/>
</g>
<!-- PhonePipe -->
<g id="node29" class="node">
<title>PhonePipe</title>
<polygon fill="#ffffb3" stroke="#000000" points="2494.8851,-190 2419.1149,-190 2419.1149,-154 2494.8851,-154 2494.8851,-190"/>
<text text-anchor="middle" x="2457" y="-167.8" font-family="Times,serif" font-size="14.00" fill="#000000">PhonePipe</text>
</g>
<!-- PhonePipe&#45;&gt;SharedModule -->
<g id="edge28" class="edge">
<title>PhonePipe&#45;&gt;SharedModule</title>
<path fill="none" stroke="#000000" d="M2457,-190.0267C2457,-210.7672 2457,-242 2457,-242 2457,-242 1853.2911,-242 1853.2911,-242"/>
<polygon fill="#000000" stroke="#000000" points="1853.2911,-238.5001 1843.2911,-242 1853.2911,-245.5001 1853.2911,-238.5001"/>
</g>
<!-- SessionTimeOutModalComponent -->
<g id="node30" class="node">
<title>SessionTimeOutModalComponent</title>
<polygon fill="#ffffb3" stroke="#000000" points="2400.7049,-190 2189.2951,-190 2189.2951,-154 2400.7049,-154 2400.7049,-190"/>
<text text-anchor="middle" x="2295" y="-167.8" font-family="Times,serif" font-size="14.00" fill="#000000">SessionTimeOutModalComponent</text>
</g>
<!-- SessionTimeOutModalComponent&#45;&gt;SharedModule -->
<g id="edge29" class="edge">
<title>SessionTimeOutModalComponent&#45;&gt;SharedModule</title>
<path fill="none" stroke="#000000" d="M2295,-190.308C2295,-210.1455 2295,-239 2295,-239 2295,-239 1853.4089,-239 1853.4089,-239"/>
<polygon fill="#000000" stroke="#000000" points="1853.409,-235.5001 1843.4089,-239 1853.4089,-242.5001 1853.409,-235.5001"/>
</g>
<!-- LoggerService -->
<g id="node39" class="node">
<title>LoggerService</title>
<ellipse fill="#fdb462" stroke="#000000" cx="729" cy="-172" rx="67.7567" ry="18"/>
<text text-anchor="middle" x="729" y="-167.8" font-family="Times,serif" font-size="14.00" fill="#000000">LoggerService</text>
</g>
<!-- LoggerService&#45;&gt;SharedModule -->
<g id="edge39" class="edge">
<title>LoggerService&#45;&gt;SharedModule</title>
<path fill="none" stroke="#000000" d="M729,-190.1097C729,-199.897 729,-210 729,-210 729,-210 1789.5263,-210 1789.5263,-210 1789.5263,-210 1789.5263,-219.8903 1789.5263,-219.8903"/>
<polygon fill="#000000" stroke="#000000" points="1786.0264,-219.8903 1789.5263,-229.8903 1793.0264,-219.8904 1786.0264,-219.8903"/>
</g>
<!-- ManagerService -->
<g id="node40" class="node">
<title>ManagerService</title>
<ellipse fill="#fdb462" stroke="#000000" cx="569" cy="-172" rx="74.1162" ry="18"/>
<text text-anchor="middle" x="569" y="-167.8" font-family="Times,serif" font-size="14.00" fill="#000000">ManagerService</text>
</g>
<!-- ManagerService&#45;&gt;SharedModule -->
<g id="edge40" class="edge">
<title>ManagerService&#45;&gt;SharedModule</title>
<path fill="none" stroke="#000000" d="M569,-190.0555C569,-201.439 569,-214 569,-214 569,-214 1780.5788,-214 1780.5788,-214 1780.5788,-214 1780.5788,-219.8056 1780.5788,-219.8056"/>
<polygon fill="#000000" stroke="#000000" points="1777.0789,-219.8055 1780.5788,-229.8056 1784.0789,-219.8056 1777.0789,-219.8055"/>
</g>
<!-- MyDeqErrorHandler -->
<g id="node41" class="node">
<title>MyDeqErrorHandler</title>
<ellipse fill="#fdb462" stroke="#000000" cx="385" cy="-172" rx="92.0161" ry="18"/>
<text text-anchor="middle" x="385" y="-167.8" font-family="Times,serif" font-size="14.00" fill="#000000">MyDeqErrorHandler</text>
</g>
<!-- MyDeqErrorHandler&#45;&gt;SharedModule -->
<g id="edge41" class="edge">
<title>MyDeqErrorHandler&#45;&gt;SharedModule</title>
<path fill="none" stroke="#000000" d="M385,-190.1804C385,-203.0382 385,-218 385,-218 385,-218 1771.6313,-218 1771.6313,-218 1771.6313,-218 1771.6313,-219.8568 1771.6313,-219.8568"/>
<polygon fill="#000000" stroke="#000000" points="1768.1314,-219.8568 1771.6313,-229.8568 1775.1314,-219.8568 1768.1314,-219.8568"/>
</g>
<!-- PageConentService -->
<g id="node42" class="node">
<title>PageConentService</title>
<ellipse fill="#fdb462" stroke="#000000" cx="188" cy="-172" rx="86.8165" ry="18"/>
<text text-anchor="middle" x="188" y="-167.8" font-family="Times,serif" font-size="14.00" fill="#000000">PageConentService</text>
</g>
<!-- PageConentService&#45;&gt;SharedModule -->
<g id="edge42" class="edge">
<title>PageConentService&#45;&gt;SharedModule</title>
<path fill="none" stroke="#000000" d="M188,-190.0511C188,-204.373 188,-222 188,-222 188,-222 1762.6838,-222 1762.6838,-222 1762.6838,-222 1762.6838,-222.7942 1762.6838,-222.7942"/>
<polygon fill="#000000" stroke="#000000" points="1759.184,-219.9421 1762.6838,-229.9421 1766.184,-219.9422 1759.184,-219.9421"/>
</g>
<!-- Utils -->
<g id="node43" class="node">
<title>Utils</title>
<ellipse fill="#fdb462" stroke="#000000" cx="54" cy="-172" rx="29.63" ry="18"/>
<text text-anchor="middle" x="54" y="-167.8" font-family="Times,serif" font-size="14.00" fill="#000000">Utils</text>
</g>
<!-- Utils&#45;&gt;SharedModule -->
<g id="edge43" class="edge">
<title>Utils&#45;&gt;SharedModule</title>
<path fill="none" stroke="#000000" d="M54,-190.2819C54,-205.9478 54,-226 54,-226 54,-226 1753.7364,-226 1753.7364,-226 1753.7364,-226 1753.7364,-226.3832 1753.7364,-226.3832"/>
<polygon fill="#000000" stroke="#000000" points="1750.2367,-219.832 1753.7364,-229.8321 1757.2367,-219.8322 1750.2367,-219.832"/>
</g>
</g>
</svg>
