<?xml version="1.0" encoding="UTF-8" standalone="no"?>
<!DOCTYPE svg PUBLIC "-//W3C//DTD SVG 1.1//EN"
 "http://www.w3.org/Graphics/SVG/1.1/DTD/svg11.dtd">
<!-- Generated by graphviz version 2.40.1 (20161225.0304)
 -->
<!-- Title: dependencies Pages: 1 -->
<svg width="2176pt" height="284pt"
 viewBox="0.00 0.00 2176.00 284.00" xmlns="http://www.w3.org/2000/svg" xmlns:xlink="http://www.w3.org/1999/xlink">
<g id="graph0" class="graph" transform="scale(1 1) rotate(0) translate(4 280)">
<title>dependencies</title>
<polygon fill="#ffffff" stroke="transparent" points="-4,4 -4,-280 2172,-280 2172,4 -4,4"/>
<text text-anchor="start" x="1063.0091" y="-42.4" font-family="sans-serif" font-weight="bold" font-size="14.00" fill="#000000">Legend</text>
<polygon fill="#ffffb3" stroke="transparent" points="850,-10 850,-30 870,-30 870,-10 850,-10"/>
<text text-anchor="start" x="873.629" y="-15.4" font-family="sans-serif" font-size="14.00" fill="#000000"> &#160;Declarations</text>
<polygon fill="#8dd3c7" stroke="transparent" points="963,-10 963,-30 983,-30 983,-10 963,-10"/>
<text text-anchor="start" x="986.7251" y="-15.4" font-family="sans-serif" font-size="14.00" fill="#000000"> &#160;Module</text>
<polygon fill="#80b1d3" stroke="transparent" points="1049,-10 1049,-30 1069,-30 1069,-10 1049,-10"/>
<text text-anchor="start" x="1072.7812" y="-15.4" font-family="sans-serif" font-size="14.00" fill="#000000"> &#160;Bootstrap</text>
<polygon fill="#fdb462" stroke="transparent" points="1146,-10 1146,-30 1166,-30 1166,-10 1146,-10"/>
<text text-anchor="start" x="1169.6732" y="-15.4" font-family="sans-serif" font-size="14.00" fill="#000000"> &#160;Providers</text>
<polygon fill="#fb8072" stroke="transparent" points="1242,-10 1242,-30 1262,-30 1262,-10 1242,-10"/>
<text text-anchor="start" x="1265.7258" y="-15.4" font-family="sans-serif" font-size="14.00" fill="#000000"> &#160;Exports</text>
<g id="clust1" class="cluster">
<title>cluster_SharedModule</title>
<polygon fill="none" stroke="#000000" stroke-dasharray="1,5" points="8,-70 8,-268 2160,-268 2160,-70 8,-70"/>
</g>
<g id="clust2" class="cluster">
<title>cluster_SharedModule_declarations</title>
<polygon fill="none" stroke="#000000" points="955,-78 955,-130 2152,-130 2152,-78 955,-78"/>
</g>
<g id="clust10" class="cluster">
<title>cluster_SharedModule_imports</title>
<polygon fill="none" stroke="#000000" points="813,-78 813,-130 947,-130 947,-78 813,-78"/>
</g>
<g id="clust11" class="cluster">
<title>cluster_SharedModule_exports</title>
<polygon fill="none" stroke="#000000" points="372,-208 372,-260 1732,-260 1732,-208 372,-208"/>
</g>
<g id="clust13" class="cluster">
<title>cluster_SharedModule_providers</title>
<polygon fill="none" stroke="#000000" points="16,-78 16,-130 805,-130 805,-78 16,-78"/>
</g>
<!-- ConcatStringPipe -->
<g id="node1" class="node">
<title>ConcatStringPipe</title>
<polygon fill="#ffffb3" stroke="#000000" points="2144.2688,-122 2029.7312,-122 2029.7312,-86 2144.2688,-86 2144.2688,-122"/>
<text text-anchor="middle" x="2087" y="-99.8" font-family="Times,serif" font-size="14.00" fill="#000000">ConcatStringPipe</text>
</g>
<!-- SharedModule -->
<g id="node8" class="node">
<title>SharedModule</title>
<polygon fill="#8dd3c7" stroke="#000000" points="1118.4231,-187 1115.4231,-191 1094.4231,-191 1091.4231,-187 1019.5769,-187 1019.5769,-151 1118.4231,-151 1118.4231,-187"/>
<text text-anchor="middle" x="1069" y="-164.8" font-family="Times,serif" font-size="14.00" fill="#000000">SharedModule</text>
</g>
<!-- ConcatStringPipe&#45;&gt;SharedModule -->
<g id="edge1" class="edge">
<title>ConcatStringPipe&#45;&gt;SharedModule</title>
<path fill="none" stroke="#000000" d="M2087,-122.1289C2087,-142.5724 2087,-173 2087,-173 2087,-173 1128.4443,-173 1128.4443,-173"/>
<polygon fill="#000000" stroke="#000000" points="1128.4443,-169.5001 1118.4443,-173 1128.4443,-176.5001 1128.4443,-169.5001"/>
</g>
<!-- MydeqAlertModalComponent -->
<g id="node2" class="node">
<title>MydeqAlertModalComponent</title>
<polygon fill="#ffffb3" stroke="#000000" points="2011.3046,-122 1824.6954,-122 1824.6954,-86 2011.3046,-86 2011.3046,-122"/>
<text text-anchor="middle" x="1918" y="-99.8" font-family="Times,serif" font-size="14.00" fill="#000000">MydeqAlertModalComponent</text>
</g>
<!-- MydeqAlertModalComponent&#45;&gt;SharedModule -->
<g id="edge2" class="edge">
<title>MydeqAlertModalComponent&#45;&gt;SharedModule</title>
<path fill="none" stroke="#000000" d="M1918,-122.1061C1918,-141.3391 1918,-169 1918,-169 1918,-169 1128.3155,-169 1128.3155,-169"/>
<polygon fill="#000000" stroke="#000000" points="1128.3155,-165.5001 1118.3155,-169 1128.3155,-172.5001 1128.3155,-165.5001"/>
</g>
<!-- MydeqFooterComponent -->
<g id="node3" class="node">
<title>MydeqFooterComponent</title>
<polygon fill="#ffffb3" stroke="#000000" points="1806.5407,-122 1649.4593,-122 1649.4593,-86 1806.5407,-86 1806.5407,-122"/>
<text text-anchor="middle" x="1728" y="-99.8" font-family="Times,serif" font-size="14.00" fill="#000000">MydeqFooterComponent</text>
</g>
<!-- MydeqFooterComponent&#45;&gt;SharedModule -->
<g id="edge3" class="edge">
<title>MydeqFooterComponent&#45;&gt;SharedModule</title>
<path fill="none" stroke="#000000" d="M1686.6822,-122.2667C1686.6822,-140.5552 1686.6822,-166 1686.6822,-166 1686.6822,-166 1128.2438,-166 1128.2438,-166"/>
<polygon fill="#000000" stroke="#000000" points="1128.2438,-162.5001 1118.2438,-166 1128.2438,-169.5001 1128.2438,-162.5001"/>
</g>
<!-- MydeqHeaderComponent -->
<g id="node4" class="node">
<title>MydeqHeaderComponent</title>
<polygon fill="#ffffb3" stroke="#000000" points="1631.9031,-122 1470.0969,-122 1470.0969,-86 1631.9031,-86 1631.9031,-122"/>
<text text-anchor="middle" x="1551" y="-99.8" font-family="Times,serif" font-size="14.00" fill="#000000">MydeqHeaderComponent</text>
</g>
<!-- MydeqHeaderComponent&#45;&gt;SharedModule -->
<g id="edge4" class="edge">
<title>MydeqHeaderComponent&#45;&gt;SharedModule</title>
<path fill="none" stroke="#000000" d="M1509.4239,-122.0336C1509.4239,-139.0597 1509.4239,-162 1509.4239,-162 1509.4239,-162 1128.2402,-162 1128.2402,-162"/>
<polygon fill="#000000" stroke="#000000" points="1128.2403,-158.5001 1118.2402,-162 1128.2402,-165.5001 1128.2403,-158.5001"/>
</g>
<!-- PageNotFoundComponent -->
<g id="node5" class="node">
<title>PageNotFoundComponent</title>
<polygon fill="#ffffb3" stroke="#000000" points="1452.8243,-122 1287.1757,-122 1287.1757,-86 1452.8243,-86 1452.8243,-122"/>
<text text-anchor="middle" x="1370" y="-99.8" font-family="Times,serif" font-size="14.00" fill="#000000">PageNotFoundComponent</text>
</g>
<!-- PageNotFoundComponent&#45;&gt;SharedModule -->
<g id="edge5" class="edge">
<title>PageNotFoundComponent&#45;&gt;SharedModule</title>
<path fill="none" stroke="#000000" d="M1367.6201,-122.0091C1367.6201,-138.0494 1367.6201,-159 1367.6201,-159 1367.6201,-159 1128.311,-159 1128.311,-159"/>
<polygon fill="#000000" stroke="#000000" points="1128.3111,-155.5001 1118.311,-159 1128.311,-162.5001 1128.3111,-155.5001"/>
</g>
<!-- PhonePipe -->
<g id="node6" class="node">
<title>PhonePipe</title>
<polygon fill="#ffffb3" stroke="#000000" points="1268.8851,-122 1193.1149,-122 1193.1149,-86 1268.8851,-86 1268.8851,-122"/>
<text text-anchor="middle" x="1231" y="-99.8" font-family="Times,serif" font-size="14.00" fill="#000000">PhonePipe</text>
</g>
<!-- PhonePipe&#45;&gt;SharedModule -->
<g id="edge6" class="edge">
<title>PhonePipe&#45;&gt;SharedModule</title>
<path fill="none" stroke="#000000" d="M1216.7888,-122.1243C1216.7888,-136.7832 1216.7888,-155 1216.7888,-155 1216.7888,-155 1128.2115,-155 1128.2115,-155"/>
<polygon fill="#000000" stroke="#000000" points="1128.2115,-151.5001 1118.2115,-155 1128.2115,-158.5001 1128.2115,-151.5001"/>
</g>
<!-- SessionTimeOutModalComponent -->
<g id="node7" class="node">
<title>SessionTimeOutModalComponent</title>
<polygon fill="#ffffb3" stroke="#000000" points="1174.7049,-122 963.2951,-122 963.2951,-86 1174.7049,-86 1174.7049,-122"/>
<text text-anchor="middle" x="1069" y="-99.8" font-family="Times,serif" font-size="14.00" fill="#000000">SessionTimeOutModalComponent</text>
</g>
<!-- SessionTimeOutModalComponent&#45;&gt;SharedModule -->
<g id="edge7" class="edge">
<title>SessionTimeOutModalComponent&#45;&gt;SharedModule</title>
<path fill="none" stroke="#000000" d="M1069,-122.1061C1069,-122.1061 1069,-140.991 1069,-140.991"/>
<polygon fill="#000000" stroke="#000000" points="1065.5001,-140.9909 1069,-150.991 1072.5001,-140.991 1065.5001,-140.9909"/>
</g>
<!-- ConcatStringPipe  -->
<g id="node10" class="node">
<title>ConcatStringPipe </title>
<polygon fill="#fb8072" stroke="#000000" points="1724.2689,-252 1605.7311,-252 1605.7311,-216 1724.2689,-216 1724.2689,-252"/>
<text text-anchor="middle" x="1665" y="-229.8" font-family="Times,serif" font-size="14.00" fill="#000000">ConcatStringPipe </text>
</g>
<!-- SharedModule&#45;&gt;ConcatStringPipe  -->
<g id="edge9" class="edge">
<title>SharedModule&#45;&gt;ConcatStringPipe </title>
<path fill="none" stroke="#000000" stroke-dasharray="5,2" d="M1118.2735,-177C1253.2184,-177 1618.7835,-177 1618.7835,-177 1618.7835,-177 1618.7835,-205.9648 1618.7835,-205.9648"/>
<polygon fill="#000000" stroke="#000000" points="1615.2836,-205.9648 1618.7835,-215.9648 1622.2836,-205.9649 1615.2836,-205.9648"/>
</g>
<!-- DataTableModule  -->
<g id="node11" class="node">
<title>DataTableModule </title>
<polygon fill="#fb8072" stroke="#000000" points="1587.8491,-252 1466.1509,-252 1466.1509,-216 1587.8491,-216 1587.8491,-252"/>
<text text-anchor="middle" x="1527" y="-229.8" font-family="Times,serif" font-size="14.00" fill="#000000">DataTableModule </text>
</g>
<!-- SharedModule&#45;&gt;DataTableModule  -->
<g id="edge10" class="edge">
<title>SharedModule&#45;&gt;DataTableModule </title>
<path fill="none" stroke="#000000" stroke-dasharray="5,2" d="M1118.514,-180C1241.0379,-180 1548.5491,-180 1548.5491,-180 1548.5491,-180 1548.5491,-205.7181 1548.5491,-205.7181"/>
<polygon fill="#000000" stroke="#000000" points="1545.0492,-205.718 1548.5491,-215.7181 1552.0492,-205.7181 1545.0492,-205.718"/>
</g>
<!-- MydeqAlertModalComponent  -->
<g id="node12" class="node">
<title>MydeqAlertModalComponent </title>
<polygon fill="#fb8072" stroke="#000000" points="1447.8045,-252 1258.1955,-252 1258.1955,-216 1447.8045,-216 1447.8045,-252"/>
<text text-anchor="middle" x="1353" y="-229.8" font-family="Times,serif" font-size="14.00" fill="#000000">MydeqAlertModalComponent </text>
</g>
<!-- SharedModule&#45;&gt;MydeqAlertModalComponent  -->
<g id="edge11" class="edge">
<title>SharedModule&#45;&gt;MydeqAlertModalComponent </title>
<path fill="none" stroke="#000000" stroke-dasharray="5,2" d="M1118.3371,-184C1175.9657,-184 1263.5202,-184 1263.5202,-184 1263.5202,-184 1263.5202,-205.9489 1263.5202,-205.9489"/>
<polygon fill="#000000" stroke="#000000" points="1260.0202,-205.9488 1263.5202,-215.9489 1267.0202,-205.9489 1260.0202,-205.9488"/>
</g>
<!-- MydeqFooterComponent  -->
<g id="node13" class="node">
<title>MydeqFooterComponent </title>
<polygon fill="#fb8072" stroke="#000000" points="1240.54,-252 1079.46,-252 1079.46,-216 1240.54,-216 1240.54,-252"/>
<text text-anchor="middle" x="1160" y="-229.8" font-family="Times,serif" font-size="14.00" fill="#000000">MydeqFooterComponent </text>
</g>
<!-- SharedModule&#45;&gt;MydeqFooterComponent  -->
<g id="edge12" class="edge">
<title>SharedModule&#45;&gt;MydeqFooterComponent </title>
<path fill="none" stroke="#000000" stroke-dasharray="5,2" d="M1098.8456,-187.1061C1098.8456,-187.1061 1098.8456,-205.991 1098.8456,-205.991"/>
<polygon fill="#000000" stroke="#000000" points="1095.3456,-205.9909 1098.8456,-215.991 1102.3456,-205.991 1095.3456,-205.9909"/>
</g>
<!-- MydeqHeaderComponent  -->
<g id="node14" class="node">
<title>MydeqHeaderComponent </title>
<polygon fill="#fb8072" stroke="#000000" points="1061.4026,-252 896.5974,-252 896.5974,-216 1061.4026,-216 1061.4026,-252"/>
<text text-anchor="middle" x="979" y="-229.8" font-family="Times,serif" font-size="14.00" fill="#000000">MydeqHeaderComponent </text>
</g>
<!-- SharedModule&#45;&gt;MydeqHeaderComponent  -->
<g id="edge13" class="edge">
<title>SharedModule&#45;&gt;MydeqHeaderComponent </title>
<path fill="none" stroke="#000000" stroke-dasharray="5,2" d="M1040.6201,-187.1061C1040.6201,-187.1061 1040.6201,-205.991 1040.6201,-205.991"/>
<polygon fill="#000000" stroke="#000000" points="1037.1202,-205.9909 1040.6201,-215.991 1044.1202,-205.991 1037.1202,-205.9909"/>
</g>
<!-- PageNotFoundComponent  -->
<g id="node15" class="node">
<title>PageNotFoundComponent </title>
<polygon fill="#fb8072" stroke="#000000" points="878.3241,-252 709.6759,-252 709.6759,-216 878.3241,-216 878.3241,-252"/>
<text text-anchor="middle" x="794" y="-229.8" font-family="Times,serif" font-size="14.00" fill="#000000">PageNotFoundComponent </text>
</g>
<!-- SharedModule&#45;&gt;PageNotFoundComponent  -->
<g id="edge14" class="edge">
<title>SharedModule&#45;&gt;PageNotFoundComponent </title>
<path fill="none" stroke="#000000" stroke-dasharray="5,2" d="M1019.5213,-184C954.8539,-184 849.7439,-184 849.7439,-184 849.7439,-184 849.7439,-205.9489 849.7439,-205.9489"/>
<polygon fill="#000000" stroke="#000000" points="846.2439,-205.9488 849.7439,-215.9489 853.2439,-205.9489 846.2439,-205.9488"/>
</g>
<!-- PhonePipe  -->
<g id="node16" class="node">
<title>PhonePipe </title>
<polygon fill="#fb8072" stroke="#000000" points="691.8859,-252 612.1141,-252 612.1141,-216 691.8859,-216 691.8859,-252"/>
<text text-anchor="middle" x="652" y="-229.8" font-family="Times,serif" font-size="14.00" fill="#000000">PhonePipe </text>
</g>
<!-- SharedModule&#45;&gt;PhonePipe  -->
<g id="edge15" class="edge">
<title>SharedModule&#45;&gt;PhonePipe </title>
<path fill="none" stroke="#000000" stroke-dasharray="5,2" d="M1019.6754,-180C914.233,-180 676.4071,-180 676.4071,-180 676.4071,-180 676.4071,-205.7181 676.4071,-205.7181"/>
<polygon fill="#000000" stroke="#000000" points="672.9072,-205.718 676.4071,-215.7181 679.9072,-205.7181 672.9072,-205.718"/>
</g>
<!-- SessionTimeOutModalComponent  -->
<g id="node17" class="node">
<title>SessionTimeOutModalComponent </title>
<polygon fill="#fb8072" stroke="#000000" points="594.205,-252 379.795,-252 379.795,-216 594.205,-216 594.205,-252"/>
<text text-anchor="middle" x="487" y="-229.8" font-family="Times,serif" font-size="14.00" fill="#000000">SessionTimeOutModalComponent </text>
</g>
<!-- SharedModule&#45;&gt;SessionTimeOutModalComponent  -->
<g id="edge16" class="edge">
<title>SharedModule&#45;&gt;SessionTimeOutModalComponent </title>
<path fill="none" stroke="#000000" stroke-dasharray="5,2" d="M1019.6584,-177C889.0969,-177 544.5223,-177 544.5223,-177 544.5223,-177 544.5223,-205.9648 544.5223,-205.9648"/>
<polygon fill="#000000" stroke="#000000" points="541.0224,-205.9648 544.5223,-215.9648 548.0224,-205.9649 541.0224,-205.9648"/>
</g>
<!-- DataTableModule -->
<g id="node9" class="node">
<title>DataTableModule</title>
<polygon fill="#8dd3c7" stroke="#000000" points="938.8487,-122 935.8487,-126 914.8487,-126 911.8487,-122 821.1513,-122 821.1513,-86 938.8487,-86 938.8487,-122"/>
<text text-anchor="middle" x="880" y="-99.8" font-family="Times,serif" font-size="14.00" fill="#000000">DataTableModule</text>
</g>
<!-- DataTableModule&#45;&gt;SharedModule -->
<g id="edge8" class="edge">
<title>DataTableModule&#45;&gt;SharedModule</title>
<path fill="none" stroke="#000000" d="M917.7365,-122.1243C917.7365,-136.7832 917.7365,-155 917.7365,-155 917.7365,-155 1009.4707,-155 1009.4707,-155"/>
<polygon fill="#000000" stroke="#000000" points="1009.4707,-158.5001 1019.4707,-155 1009.4706,-151.5001 1009.4707,-158.5001"/>
</g>
<!-- LoggerService -->
<g id="node18" class="node">
<title>LoggerService</title>
<ellipse fill="#fdb462" stroke="#000000" cx="729" cy="-104" rx="67.7567" ry="18"/>
<text text-anchor="middle" x="729" y="-99.8" font-family="Times,serif" font-size="14.00" fill="#000000">LoggerService</text>
</g>
<!-- LoggerService&#45;&gt;SharedModule -->
<g id="edge17" class="edge">
<title>LoggerService&#45;&gt;SharedModule</title>
<path fill="none" stroke="#000000" d="M753.2331,-121.1009C753.2331,-137.2462 753.2331,-159 753.2331,-159 753.2331,-159 1009.6614,-159 1009.6614,-159"/>
<polygon fill="#000000" stroke="#000000" points="1009.6615,-162.5001 1019.6614,-159 1009.6614,-155.5001 1009.6615,-162.5001"/>
</g>
<!-- ManagerService -->
<g id="node19" class="node">
<title>ManagerService</title>
<ellipse fill="#fdb462" stroke="#000000" cx="569" cy="-104" rx="74.1162" ry="18"/>
<text text-anchor="middle" x="569" y="-99.8" font-family="Times,serif" font-size="14.00" fill="#000000">ManagerService</text>
</g>
<!-- ManagerService&#45;&gt;SharedModule -->
<g id="edge18" class="edge">
<title>ManagerService&#45;&gt;SharedModule</title>
<path fill="none" stroke="#000000" d="M627.8077,-115.183C627.8077,-132.0371 627.8077,-162 627.8077,-162 627.8077,-162 1009.6739,-162 1009.6739,-162"/>
<polygon fill="#000000" stroke="#000000" points="1009.6739,-165.5001 1019.6739,-162 1009.6738,-158.5001 1009.6739,-165.5001"/>
</g>
<!-- MyDeqErrorHandler -->
<g id="node20" class="node">
<title>MyDeqErrorHandler</title>
<ellipse fill="#fdb462" stroke="#000000" cx="385" cy="-104" rx="92.0161" ry="18"/>
<text text-anchor="middle" x="385" y="-99.8" font-family="Times,serif" font-size="14.00" fill="#000000">MyDeqErrorHandler</text>
</g>
<!-- MyDeqErrorHandler&#45;&gt;SharedModule -->
<g id="edge19" class="edge">
<title>MyDeqErrorHandler&#45;&gt;SharedModule</title>
<path fill="none" stroke="#000000" d="M428.3278,-119.9665C428.3278,-138.3367 428.3278,-166 428.3278,-166 428.3278,-166 1009.5263,-166 1009.5263,-166"/>
<polygon fill="#000000" stroke="#000000" points="1009.5263,-169.5001 1019.5263,-166 1009.5263,-162.5001 1009.5263,-169.5001"/>
</g>
<!-- PageConentService -->
<g id="node21" class="node">
<title>PageConentService</title>
<ellipse fill="#fdb462" stroke="#000000" cx="188" cy="-104" rx="86.8165" ry="18"/>
<text text-anchor="middle" x="188" y="-99.8" font-family="Times,serif" font-size="14.00" fill="#000000">PageConentService</text>
</g>
<!-- PageConentService&#45;&gt;SharedModule -->
<g id="edge20" class="edge">
<title>PageConentService&#45;&gt;SharedModule</title>
<path fill="none" stroke="#000000" d="M188,-122.1061C188,-141.3391 188,-169 188,-169 188,-169 1009.7458,-169 1009.7458,-169"/>
<polygon fill="#000000" stroke="#000000" points="1009.7459,-172.5001 1019.7458,-169 1009.7458,-165.5001 1009.7459,-172.5001"/>
</g>
<!-- Utils -->
<g id="node22" class="node">
<title>Utils</title>
<ellipse fill="#fdb462" stroke="#000000" cx="54" cy="-104" rx="29.63" ry="18"/>
<text text-anchor="middle" x="54" y="-99.8" font-family="Times,serif" font-size="14.00" fill="#000000">Utils</text>
</g>
<!-- Utils&#45;&gt;SharedModule -->
<g id="edge21" class="edge">
<title>Utils&#45;&gt;SharedModule</title>
<path fill="none" stroke="#000000" d="M54,-122.1289C54,-142.5724 54,-173 54,-173 54,-173 1009.7014,-173 1009.7014,-173"/>
<polygon fill="#000000" stroke="#000000" points="1009.7015,-176.5001 1019.7014,-173 1009.7014,-169.5001 1009.7015,-176.5001"/>
</g>
</g>
</svg>
