<?xml version="1.0" encoding="utf-8"?>
<!-- Generator: Adobe Illustrator 16.0.0, SVG Export Plug-In . SVG Version: 6.00 Build 0)  -->
<!DOCTYPE svg PUBLIC "-//W3C//DTD SVG 1.1//EN" "http://www.w3.org/Graphics/SVG/1.1/DTD/svg11.dtd">
<svg version="1.1" id="Layer_1" xmlns="http://www.w3.org/2000/svg" xmlns:xlink="http://www.w3.org/1999/xlink" x="0px" y="0px"
	 width="28.38px" height="28.38px" viewBox="-0.002 -0.065 28.38 28.38" enable-background="new -0.002 -0.065 28.38 28.38"
	 xml:space="preserve">
<g>
	<g>
		<defs>
			<rect id="SVGID_1_" x="-0.25" y="-8.375" width="46.885" height="42.75"/>
		</defs>
		<clipPath id="SVGID_2_">
			<use xlink:href="#SVGID_1_"  overflow="visible"/>
		</clipPath>
		<path fill="#5D8C86" d="M14.25,27.875c7.525,0,13.625-6.1,13.625-13.625
			c0-7.525-6.1-13.625-13.625-13.625c-7.525,0-13.625,6.1-13.625,13.625C0.625,21.775,6.725,27.875,14.25,27.875"/>
	</g>
</g>
<rect x="8.374" y="5.5" fill="none" width="23.75" height="19.875"/>
<g enable-background="new    ">
	<path fill="#FFFFFF" d="M9.458,18.303V18.01h3.33c0,0.918,0.029,2.422,1.211,2.422c1.455,0,1.348-2.91,1.348-3.896l-0.01-0.439
		c-0.596,0.332-1.27,0.488-1.943,0.488c-3.291,0-4.131-2.51-4.131-5.342c0-2.998,1.279-6.084,4.736-6.084
		c3.369,0,4.736,3.154,4.736,6.084v5.469c0,3.125-0.938,6.65-4.736,6.65C10.952,23.361,9.546,21.184,9.458,18.303z M15.327,12.98
		v-2.314c0-0.85-0.156-2.529-1.328-2.529c-1.318,0-1.309,2.041-1.309,2.949c0,0.938-0.02,2.686,1.309,2.686
		C14.536,13.771,15.044,13.42,15.327,12.98z"/>
</g>
</svg>