<svg xmlns="http://www.w3.org/2000/svg" xmlns:xlink="http://www.w3.org/1999/xlink" width="27.31" height="27.31" viewBox="0 0 27.31 27.31"><defs><style>.cls-1{fill:none;}.cls-2{clip-path:url(#clip-path);}.cls-3{fill:#fff;}.cls-4{fill:#5d8b85;}</style><clipPath id="clip-path" transform="translate(0 0)"><rect class="cls-1" width="27.31" height="27.31"/></clipPath></defs><title>Asset 1</title><g id="Layer_2" data-name="Layer 2"><g id="Layer_3" data-name="Layer 3"><g class="cls-2"><path class="cls-3" d="M13.66,27.31A13.66,13.66,0,1,0,0,13.66,13.65,13.65,0,0,0,13.66,27.31" transform="translate(0 0)"/><path class="cls-4" d="M11.18,21a.81.81,0,0,0,.63.28.85.85,0,0,0,.64-.28L22.85,10.6A.82.82,0,0,0,23.1,10a.86.86,0,0,0-.25-.64l-1.3-1.27a.82.82,0,0,0-.62-.28.9.9,0,0,0-.65.28l-8.47,8.47-3.95-4a.9.9,0,0,0-.65-.28.77.77,0,0,0-.62.28L5.28,13.85a1,1,0,0,0,0,1.27Z" transform="translate(0 0)"/></g></g></g></svg>