<?xml version="1.0" encoding="utf-8"?>
<!-- Generator: Adobe Illustrator 16.0.0, SVG Export Plug-In . SVG Version: 6.00 Build 0)  -->
<!DOCTYPE svg PUBLIC "-//W3C//DTD SVG 1.1//EN" "http://www.w3.org/Graphics/SVG/1.1/DTD/svg11.dtd">
<svg version="1.1" id="Layer_1" xmlns="http://www.w3.org/2000/svg" xmlns:xlink="http://www.w3.org/1999/xlink" x="0px" y="0px"
	 width="16.854px" height="16.96px" viewBox="0 0 16.854 16.96" enable-background="new 0 0 16.854 16.96" xml:space="preserve">
<path fill="none" stroke="#604543" stroke-miterlimit="10" d="M16.167,8.772c0,4.073-3.303,7.375-7.376,7.375H8.542
	c-4.074,0-7.376-3.302-7.376-7.375v-0.25c0-4.073,3.302-7.375,7.376-7.375h0.248c4.073,0,7.376,3.302,7.376,7.375V8.772z"/>
<g>
	<path fill="#604543" d="M9.938,6.329c0-0.75-0.375-1.125-1.125-1.125c-0.896,0-1.125,0.586-1.125,1.5h-1.5V6.329
		c0-1.717,0.932-2.625,2.625-2.625c1.717,0,2.631,0.932,2.631,2.625c0,1.758-0.949,2.748-2.256,3.375v1.5h-1.5V9.329
		C8.737,8.702,9.938,7.853,9.938,6.329z M9.188,11.954v1.5h-1.5v-1.5H9.188z"/>
</g>
</svg>
