<?xml version="1.0" encoding="UTF-8" standalone="no"?>
<!DOCTYPE svg PUBLIC "-//W3C//DTD SVG 1.1//EN"
 "http://www.w3.org/Graphics/SVG/1.1/DTD/svg11.dtd">
<!-- Generated by graphviz version 2.40.1 (20161225.0304)
 -->
<!-- Title: dependencies Pages: 1 -->
<svg width="757pt" height="284pt"
 viewBox="0.00 0.00 757.00 284.00" xmlns="http://www.w3.org/2000/svg" xmlns:xlink="http://www.w3.org/1999/xlink">
<g id="graph0" class="graph" transform="scale(1 1) rotate(0) translate(4 280)">
<title>dependencies</title>
<polygon fill="#ffffff" stroke="transparent" points="-4,4 -4,-280 753,-280 753,4 -4,4"/>
<text text-anchor="start" x="353.5091" y="-42.4" font-family="sans-serif" font-weight="bold" font-size="14.00" fill="#000000">Legend</text>
<polygon fill="#ffffb3" stroke="transparent" points="140.5,-10 140.5,-30 160.5,-30 160.5,-10 140.5,-10"/>
<text text-anchor="start" x="164.129" y="-15.4" font-family="sans-serif" font-size="14.00" fill="#000000"> &#160;Declarations</text>
<polygon fill="#8dd3c7" stroke="transparent" points="253.5,-10 253.5,-30 273.5,-30 273.5,-10 253.5,-10"/>
<text text-anchor="start" x="277.2251" y="-15.4" font-family="sans-serif" font-size="14.00" fill="#000000"> &#160;Module</text>
<polygon fill="#80b1d3" stroke="transparent" points="339.5,-10 339.5,-30 359.5,-30 359.5,-10 339.5,-10"/>
<text text-anchor="start" x="363.2812" y="-15.4" font-family="sans-serif" font-size="14.00" fill="#000000"> &#160;Bootstrap</text>
<polygon fill="#fdb462" stroke="transparent" points="436.5,-10 436.5,-30 456.5,-30 456.5,-10 436.5,-10"/>
<text text-anchor="start" x="460.1732" y="-15.4" font-family="sans-serif" font-size="14.00" fill="#000000"> &#160;Providers</text>
<polygon fill="#fb8072" stroke="transparent" points="532.5,-10 532.5,-30 552.5,-30 552.5,-10 532.5,-10"/>
<text text-anchor="start" x="556.2258" y="-15.4" font-family="sans-serif" font-size="14.00" fill="#000000"> &#160;Exports</text>
<g id="clust1" class="cluster">
<title>cluster_ComponentModule</title>
<polygon fill="none" stroke="#000000" stroke-dasharray="1,5" points="8,-70 8,-268 741,-268 741,-70 8,-70"/>
</g>
<g id="clust2" class="cluster">
<title>cluster_ComponentModule_declarations</title>
<polygon fill="none" stroke="#000000" points="138,-78 138,-130 733,-130 733,-78 138,-78"/>
</g>
<g id="clust7" class="cluster">
<title>cluster_ComponentModule_imports</title>
<polygon fill="none" stroke="#000000" points="16,-78 16,-130 130,-130 130,-78 16,-78"/>
</g>
<g id="clust8" class="cluster">
<title>cluster_ComponentModule_exports</title>
<polygon fill="none" stroke="#000000" points="71,-208 71,-260 678,-260 678,-208 71,-208"/>
</g>
<!-- HistoryComponent -->
<g id="node1" class="node">
<title>HistoryComponent</title>
<polygon fill="#ffffb3" stroke="#000000" points="724.8258,-122 601.1742,-122 601.1742,-86 724.8258,-86 724.8258,-122"/>
<text text-anchor="middle" x="663" y="-99.8" font-family="Times,serif" font-size="14.00" fill="#000000">HistoryComponent</text>
</g>
<!-- ComponentModule -->
<g id="node5" class="node">
<title>ComponentModule</title>
<polygon fill="#8dd3c7" stroke="#000000" points="408.3823,-187 405.3823,-191 384.3823,-191 381.3823,-187 283.6177,-187 283.6177,-151 408.3823,-151 408.3823,-187"/>
<text text-anchor="middle" x="346" y="-164.8" font-family="Times,serif" font-size="14.00" fill="#000000">ComponentModule</text>
</g>
<!-- HistoryComponent&#45;&gt;ComponentModule -->
<g id="edge1" class="edge">
<title>HistoryComponent&#45;&gt;ComponentModule</title>
<path fill="none" stroke="#000000" d="M635.875,-122.1061C635.875,-141.3391 635.875,-169 635.875,-169 635.875,-169 418.5417,-169 418.5417,-169"/>
<polygon fill="#000000" stroke="#000000" points="418.5417,-165.5001 408.5417,-169 418.5416,-172.5001 418.5417,-165.5001"/>
</g>
<!-- InventoryListComponent -->
<g id="node2" class="node">
<title>InventoryListComponent</title>
<polygon fill="#ffffb3" stroke="#000000" points="583.5379,-122 426.4621,-122 426.4621,-86 583.5379,-86 583.5379,-122"/>
<text text-anchor="middle" x="505" y="-99.8" font-family="Times,serif" font-size="14.00" fill="#000000">InventoryListComponent</text>
</g>
<!-- InventoryListComponent&#45;&gt;ComponentModule -->
<g id="edge2" class="edge">
<title>InventoryListComponent&#45;&gt;ComponentModule</title>
<path fill="none" stroke="#000000" d="M475.875,-122.027C475.875,-138.3976 475.875,-160 475.875,-160 475.875,-160 418.655,-160 418.655,-160"/>
<polygon fill="#000000" stroke="#000000" points="418.655,-156.5001 408.655,-160 418.6549,-163.5001 418.655,-156.5001"/>
</g>
<!-- ReviewComponent -->
<g id="node3" class="node">
<title>ReviewComponent</title>
<polygon fill="#ffffb3" stroke="#000000" points="408.0954,-122 283.9046,-122 283.9046,-86 408.0954,-86 408.0954,-122"/>
<text text-anchor="middle" x="346" y="-99.8" font-family="Times,serif" font-size="14.00" fill="#000000">ReviewComponent</text>
</g>
<!-- ReviewComponent&#45;&gt;ComponentModule -->
<g id="edge3" class="edge">
<title>ReviewComponent&#45;&gt;ComponentModule</title>
<path fill="none" stroke="#000000" d="M346,-122.1061C346,-122.1061 346,-140.991 346,-140.991"/>
<polygon fill="#000000" stroke="#000000" points="342.5001,-140.9909 346,-150.991 349.5001,-140.991 342.5001,-140.9909"/>
</g>
<!-- SearchComponent -->
<g id="node4" class="node">
<title>SearchComponent</title>
<polygon fill="#ffffb3" stroke="#000000" points="265.9201,-122 146.0799,-122 146.0799,-86 265.9201,-86 265.9201,-122"/>
<text text-anchor="middle" x="206" y="-99.8" font-family="Times,serif" font-size="14.00" fill="#000000">SearchComponent</text>
</g>
<!-- SearchComponent&#45;&gt;ComponentModule -->
<g id="edge4" class="edge">
<title>SearchComponent&#45;&gt;ComponentModule</title>
<path fill="none" stroke="#000000" d="M242.456,-122.027C242.456,-138.3976 242.456,-160 242.456,-160 242.456,-160 273.3793,-160 273.3793,-160"/>
<polygon fill="#000000" stroke="#000000" points="273.3794,-163.5001 283.3793,-160 273.3793,-156.5001 273.3794,-163.5001"/>
</g>
<!-- HistoryComponent  -->
<g id="node7" class="node">
<title>HistoryComponent </title>
<polygon fill="#fb8072" stroke="#000000" points="670.3255,-252 543.6745,-252 543.6745,-216 670.3255,-216 670.3255,-252"/>
<text text-anchor="middle" x="607" y="-229.8" font-family="Times,serif" font-size="14.00" fill="#000000">HistoryComponent </text>
</g>
<!-- ComponentModule&#45;&gt;HistoryComponent  -->
<g id="edge6" class="edge">
<title>ComponentModule&#45;&gt;HistoryComponent </title>
<path fill="none" stroke="#000000" stroke-dasharray="5,2" d="M408.6694,-178C472.9758,-178 563.678,-178 563.678,-178 563.678,-178 563.678,-205.973 563.678,-205.973"/>
<polygon fill="#000000" stroke="#000000" points="560.178,-205.973 563.678,-215.973 567.178,-205.973 560.178,-205.973"/>
</g>
<!-- InventoryListComponent  -->
<g id="node8" class="node">
<title>InventoryListComponent </title>
<polygon fill="#fb8072" stroke="#000000" points="525.5372,-252 364.4628,-252 364.4628,-216 525.5372,-216 525.5372,-252"/>
<text text-anchor="middle" x="445" y="-229.8" font-family="Times,serif" font-size="14.00" fill="#000000">InventoryListComponent </text>
</g>
<!-- ComponentModule&#45;&gt;InventoryListComponent  -->
<g id="edge7" class="edge">
<title>ComponentModule&#45;&gt;InventoryListComponent </title>
<path fill="none" stroke="#000000" stroke-dasharray="5,2" d="M386.4613,-187.1061C386.4613,-187.1061 386.4613,-205.991 386.4613,-205.991"/>
<polygon fill="#000000" stroke="#000000" points="382.9613,-205.9909 386.4613,-215.991 389.9613,-205.991 382.9613,-205.9909"/>
</g>
<!-- ReviewComponent  -->
<g id="node9" class="node">
<title>ReviewComponent </title>
<polygon fill="#fb8072" stroke="#000000" points="346.596,-252 219.404,-252 219.404,-216 346.596,-216 346.596,-252"/>
<text text-anchor="middle" x="283" y="-229.8" font-family="Times,serif" font-size="14.00" fill="#000000">ReviewComponent </text>
</g>
<!-- ComponentModule&#45;&gt;ReviewComponent  -->
<g id="edge8" class="edge">
<title>ComponentModule&#45;&gt;ReviewComponent </title>
<path fill="none" stroke="#000000" stroke-dasharray="5,2" d="M315.1783,-187.1061C315.1783,-187.1061 315.1783,-205.991 315.1783,-205.991"/>
<polygon fill="#000000" stroke="#000000" points="311.6784,-205.9909 315.1783,-215.991 318.6784,-205.991 311.6784,-205.9909"/>
</g>
<!-- SearchComponent  -->
<g id="node10" class="node">
<title>SearchComponent </title>
<polygon fill="#fb8072" stroke="#000000" points="201.4194,-252 78.5806,-252 78.5806,-216 201.4194,-216 201.4194,-252"/>
<text text-anchor="middle" x="140" y="-229.8" font-family="Times,serif" font-size="14.00" fill="#000000">SearchComponent </text>
</g>
<!-- ComponentModule&#45;&gt;SearchComponent  -->
<g id="edge9" class="edge">
<title>ComponentModule&#45;&gt;SearchComponent </title>
<path fill="none" stroke="#000000" stroke-dasharray="5,2" d="M283.372,-178C234.1572,-178 173.875,-178 173.875,-178 173.875,-178 173.875,-205.973 173.875,-205.973"/>
<polygon fill="#000000" stroke="#000000" points="170.3751,-205.973 173.875,-215.973 177.3751,-205.973 170.3751,-205.973"/>
</g>
<!-- SharedModule -->
<g id="node6" class="node">
<title>SharedModule</title>
<polygon fill="#8dd3c7" stroke="#000000" points="122.4231,-122 119.4231,-126 98.4231,-126 95.4231,-122 23.5769,-122 23.5769,-86 122.4231,-86 122.4231,-122"/>
<text text-anchor="middle" x="73" y="-99.8" font-family="Times,serif" font-size="14.00" fill="#000000">SharedModule</text>
</g>
<!-- SharedModule&#45;&gt;ComponentModule -->
<g id="edge5" class="edge">
<title>SharedModule&#45;&gt;ComponentModule</title>
<path fill="none" stroke="#000000" d="M100.3757,-122.1061C100.3757,-141.3391 100.3757,-169 100.3757,-169 100.3757,-169 273.3831,-169 273.3831,-169"/>
<polygon fill="#000000" stroke="#000000" points="273.3831,-172.5001 283.3831,-169 273.383,-165.5001 273.3831,-172.5001"/>
</g>
</g>
</svg>
