<?xml version="1.0" encoding="UTF-8" standalone="no"?>
<!DOCTYPE svg PUBLIC "-//W3C//DTD SVG 1.1//EN"
 "http://www.w3.org/Graphics/SVG/1.1/DTD/svg11.dtd">
<!-- Generated by graphviz version 2.40.1 (20161225.0304)
 -->
<!-- Title: dependencies Pages: 1 -->
<svg width="559pt" height="284pt"
 viewBox="0.00 0.00 559.00 284.00" xmlns="http://www.w3.org/2000/svg" xmlns:xlink="http://www.w3.org/1999/xlink">
<g id="graph0" class="graph" transform="scale(1 1) rotate(0) translate(4 280)">
<title>dependencies</title>
<polygon fill="#ffffff" stroke="transparent" points="-4,4 -4,-280 555,-280 555,4 -4,4"/>
<text text-anchor="start" x="254.5091" y="-42.4" font-family="sans-serif" font-weight="bold" font-size="14.00" fill="#000000">Legend</text>
<polygon fill="#ffffb3" stroke="transparent" points="41.5,-10 41.5,-30 61.5,-30 61.5,-10 41.5,-10"/>
<text text-anchor="start" x="65.129" y="-15.4" font-family="sans-serif" font-size="14.00" fill="#000000"> &#160;Declarations</text>
<polygon fill="#8dd3c7" stroke="transparent" points="154.5,-10 154.5,-30 174.5,-30 174.5,-10 154.5,-10"/>
<text text-anchor="start" x="178.2251" y="-15.4" font-family="sans-serif" font-size="14.00" fill="#000000"> &#160;Module</text>
<polygon fill="#80b1d3" stroke="transparent" points="240.5,-10 240.5,-30 260.5,-30 260.5,-10 240.5,-10"/>
<text text-anchor="start" x="264.2812" y="-15.4" font-family="sans-serif" font-size="14.00" fill="#000000"> &#160;Bootstrap</text>
<polygon fill="#fdb462" stroke="transparent" points="337.5,-10 337.5,-30 357.5,-30 357.5,-10 337.5,-10"/>
<text text-anchor="start" x="361.1732" y="-15.4" font-family="sans-serif" font-size="14.00" fill="#000000"> &#160;Providers</text>
<polygon fill="#fb8072" stroke="transparent" points="433.5,-10 433.5,-30 453.5,-30 453.5,-10 433.5,-10"/>
<text text-anchor="start" x="457.2258" y="-15.4" font-family="sans-serif" font-size="14.00" fill="#000000"> &#160;Exports</text>
<g id="clust1" class="cluster">
<title>cluster_SharedModule</title>
<polygon fill="none" stroke="#000000" stroke-dasharray="1,5" points="8,-70 8,-268 543,-268 543,-70 8,-70"/>
</g>
<g id="clust3" class="cluster">
<title>cluster_SharedModule_imports</title>
<polygon fill="none" stroke="#000000" points="385,-78 385,-130 535,-130 535,-78 385,-78"/>
</g>
<g id="clust4" class="cluster">
<title>cluster_SharedModule_exports</title>
<polygon fill="none" stroke="#000000" points="164,-208 164,-260 318,-260 318,-208 164,-208"/>
</g>
<g id="clust6" class="cluster">
<title>cluster_SharedModule_providers</title>
<polygon fill="none" stroke="#000000" points="16,-78 16,-130 377,-130 377,-78 16,-78"/>
</g>
<!-- MyDEQCoreModule -->
<g id="node1" class="node">
<title>MyDEQCoreModule</title>
<polygon fill="#8dd3c7" stroke="#000000" points="527.472,-122 524.472,-126 503.472,-126 500.472,-122 392.528,-122 392.528,-86 527.472,-86 527.472,-122"/>
<text text-anchor="middle" x="460" y="-99.8" font-family="Times,serif" font-size="14.00" fill="#000000">MyDEQCoreModule</text>
</g>
<!-- SharedModule -->
<g id="node2" class="node">
<title>SharedModule</title>
<polygon fill="#8dd3c7" stroke="#000000" points="290.4231,-187 287.4231,-191 266.4231,-191 263.4231,-187 191.5769,-187 191.5769,-151 290.4231,-151 290.4231,-187"/>
<text text-anchor="middle" x="241" y="-164.8" font-family="Times,serif" font-size="14.00" fill="#000000">SharedModule</text>
</g>
<!-- MyDEQCoreModule&#45;&gt;SharedModule -->
<g id="edge1" class="edge">
<title>MyDEQCoreModule&#45;&gt;SharedModule</title>
<path fill="none" stroke="#000000" d="M460,-122.1061C460,-141.3391 460,-169 460,-169 460,-169 300.4209,-169 300.4209,-169"/>
<polygon fill="#000000" stroke="#000000" points="300.421,-165.5001 290.4209,-169 300.4209,-172.5001 300.421,-165.5001"/>
</g>
<!-- MyDEQCoreModule  -->
<g id="node3" class="node">
<title>MyDEQCoreModule </title>
<polygon fill="#fb8072" stroke="#000000" points="310.4728,-252 171.5272,-252 171.5272,-216 310.4728,-216 310.4728,-252"/>
<text text-anchor="middle" x="241" y="-229.8" font-family="Times,serif" font-size="14.00" fill="#000000">MyDEQCoreModule </text>
</g>
<!-- SharedModule&#45;&gt;MyDEQCoreModule  -->
<g id="edge2" class="edge">
<title>SharedModule&#45;&gt;MyDEQCoreModule </title>
<path fill="none" stroke="#000000" stroke-dasharray="5,2" d="M241,-187.1061C241,-187.1061 241,-205.991 241,-205.991"/>
<polygon fill="#000000" stroke="#000000" points="237.5001,-205.9909 241,-215.991 244.5001,-205.991 237.5001,-205.9909"/>
</g>
<!-- AppService -->
<g id="node4" class="node">
<title>AppService</title>
<ellipse fill="#fdb462" stroke="#000000" cx="312" cy="-104" rx="56.7406" ry="18"/>
<text text-anchor="middle" x="312" y="-99.8" font-family="Times,serif" font-size="14.00" fill="#000000">AppService</text>
</g>
<!-- AppService&#45;&gt;SharedModule -->
<g id="edge3" class="edge">
<title>AppService&#45;&gt;SharedModule</title>
<path fill="none" stroke="#000000" d="M272.7955,-117.1537C272.7955,-117.1537 272.7955,-140.6938 272.7955,-140.6938"/>
<polygon fill="#000000" stroke="#000000" points="269.2956,-140.6938 272.7955,-150.6938 276.2956,-140.6939 269.2956,-140.6938"/>
</g>
<!-- LoggerService -->
<g id="node5" class="node">
<title>LoggerService</title>
<ellipse fill="#fdb462" stroke="#000000" cx="170" cy="-104" rx="67.7567" ry="18"/>
<text text-anchor="middle" x="170" y="-99.8" font-family="Times,serif" font-size="14.00" fill="#000000">LoggerService</text>
</g>
<!-- LoggerService&#45;&gt;SharedModule -->
<g id="edge4" class="edge">
<title>LoggerService&#45;&gt;SharedModule</title>
<path fill="none" stroke="#000000" d="M214.8336,-117.7848C214.8336,-117.7848 214.8336,-140.5475 214.8336,-140.5475"/>
<polygon fill="#000000" stroke="#000000" points="211.3337,-140.5474 214.8336,-150.5475 218.3337,-140.5475 211.3337,-140.5474"/>
</g>
<!-- Utils -->
<g id="node6" class="node">
<title>Utils</title>
<ellipse fill="#fdb462" stroke="#000000" cx="54" cy="-104" rx="29.63" ry="18"/>
<text text-anchor="middle" x="54" y="-99.8" font-family="Times,serif" font-size="14.00" fill="#000000">Utils</text>
</g>
<!-- Utils&#45;&gt;SharedModule -->
<g id="edge5" class="edge">
<title>Utils&#45;&gt;SharedModule</title>
<path fill="none" stroke="#000000" d="M54,-122.1061C54,-141.3391 54,-169 54,-169 54,-169 181.3784,-169 181.3784,-169"/>
<polygon fill="#000000" stroke="#000000" points="181.3784,-172.5001 191.3784,-169 181.3784,-165.5001 181.3784,-172.5001"/>
</g>
</g>
</svg>
