<?xml version="1.0" encoding="utf-8"?>
<!-- Generator: Adobe Illustrator 16.0.0, SVG Export Plug-In . SVG Version: 6.00 Build 0)  -->
<!DOCTYPE svg PUBLIC "-//W3C//DTD SVG 1.1//EN" "http://www.w3.org/Graphics/SVG/1.1/DTD/svg11.dtd">
<svg version="1.1" id="Layer_1" xmlns="http://www.w3.org/2000/svg" xmlns:xlink="http://www.w3.org/1999/xlink" x="0px" y="0px"
	 width="28.38px" height="28.38px" viewBox="-0.002 -0.065 28.38 28.38" enable-background="new -0.002 -0.065 28.38 28.38"
	 xml:space="preserve">
<g>
	<g>
		<defs>
			<rect id="SVGID_1_" x="-0.25" y="-8.375" width="46.885" height="42.75"/>
		</defs>
		<clipPath id="SVGID_2_">
			<use xlink:href="#SVGID_1_"  overflow="visible"/>
		</clipPath>
		<path fill="#5D8C86" d="M14.25,27.875c7.525,0,13.625-6.1,13.625-13.625
			c0-7.525-6.1-13.625-13.625-13.625c-7.525,0-13.625,6.1-13.625,13.625C0.625,21.775,6.725,27.875,14.25,27.875"/>
	</g>
</g>
<rect x="8.374" y="5.5" fill="none" width="23.75" height="19.875"/>
<g enable-background="new    ">
	<path fill="#FFFFFF" d="M11.051,13.948c-0.967-0.996-1.289-2.412-1.289-3.76c0-2.91,1.475-4.873,4.512-4.873
		c3.047,0,4.482,1.982,4.482,4.873c0,1.348-0.303,2.773-1.279,3.76C18.775,15.002,19,16.496,19,18.088
		c0,3.223-1.191,5.459-4.727,5.459c-3.516,0-4.727-2.246-4.727-5.459C9.547,16.506,9.742,15.002,11.051,13.948z M14.273,20.793
		c1.406,0,1.406-1.572,1.406-2.51c0-1.074-0.127-2.891-1.406-2.891c-1.27,0-1.416,1.816-1.416,2.891
		C12.857,19.23,12.877,20.793,14.273,20.793z M14.273,12.756c1.104,0,1.104-1.963,1.104-2.861C15.377,9.241,15.27,8,14.273,8
		c-0.986,0-1.123,1.221-1.123,1.895C13.15,10.803,13.17,12.756,14.273,12.756z"/>
</g>
</svg>