<?xml version="1.0" encoding="utf-8"?>
<!-- Generator: Adobe Illustrator 16.0.0, SVG Export Plug-In . SVG Version: 6.00 Build 0)  -->
<!DOCTYPE svg PUBLIC "-//W3C//DTD SVG 1.1//EN" "http://www.w3.org/Graphics/SVG/1.1/DTD/svg11.dtd">
<svg version="1.1" id="Layer_1" xmlns="http://www.w3.org/2000/svg" xmlns:xlink="http://www.w3.org/1999/xlink" x="0px" y="0px"
	 width="110px" height="80px" viewBox="0 0 110 80" enable-background="new 0 0 110 80" xml:space="preserve">
<rect fill="#D2C1AB" width="110" height="80"/>
<g>
	<g>
		<g>
			<g>
				<g>
					<g>
						<defs>
							<rect id="SVGID_1_" x="-9.25" y="14.422" width="128.281" height="68.455"/>
						</defs>
						<clipPath id="SVGID_2_">
							<use xlink:href="#SVGID_1_"  overflow="visible"/>
						</clipPath>
						<g opacity="0.5" clip-path="url(#SVGID_2_)">
							<g enable-background="new    ">
								<path fill="#604543" d="M35.143,69.643v-5.85h0.737v0.542c0.4-0.474,0.884-0.674,1.333-0.674
									c0.396,0,0.845,0.273,1.011,0.664c0.41-0.464,0.942-0.664,1.289-0.664c0.581,0,1.152,0.454,1.152,1.094v4.888h-0.732v-4.736
									c0-0.513-0.298-0.703-0.635-0.703c-0.293,0-0.669,0.181-0.962,0.474v4.966h-0.732v-4.741c0-0.513-0.298-0.698-0.654-0.698
									c-0.332,0-0.757,0.225-1.074,0.581v4.858H35.143z"/>
								<path fill="#604543" d="M41.788,71.103v-0.601c0.796-0.054,1.128-0.264,1.128-0.635c0-0.166-0.015-0.449-0.054-0.693
									l-1.27-5.376h0.791l0.967,5.029l0.947-5.034h0.791l-1.465,6.255c-0.205,0.791-0.815,1.025-1.821,1.055H41.788z"/>
							</g>
						</g>
					</g>
				</g>
			</g>
		</g>
	</g>
	<g>
		<g>
			<g>
				<g>
					<g>
						<defs>
							<rect id="SVGID_3_" x="-9.25" y="14.422" width="128.281" height="68.455"/>
						</defs>
						<clipPath id="SVGID_4_">
							<use xlink:href="#SVGID_3_"  overflow="visible"/>
						</clipPath>
						<g opacity="0.5" clip-path="url(#SVGID_4_)">
							<g enable-background="new    ">
								<path fill="#604543" d="M45.827,67.206v-3.521c0-1.421,0.513-2.563,2.144-2.563s2.144,1.143,2.144,2.563v3.521
									c0,1.411-0.474,2.568-2.144,2.568S45.827,68.617,45.827,67.206z M49.372,67.372V63.52c0-0.996-0.308-1.802-1.401-1.802
									s-1.401,0.806-1.401,1.802v3.853c0,0.996,0.308,1.807,1.401,1.807S49.372,68.368,49.372,67.372z"/>
								<path fill="#604543" d="M51.408,69.643v-8.403h2.241c1.46,0,1.802,1.006,1.802,2.173c0,0.859-0.249,1.699-1.172,2.036
									l1.299,4.194h-0.791l-1.226-4.102H52.15v4.102H51.408z M52.15,64.945h1.494c0.889,0,1.064-0.771,1.064-1.558
									c0-0.835-0.195-1.553-1.064-1.553H52.15V64.945z"/>
								<path fill="#604543" d="M56.628,69.643v-8.403h1.89c1.631,0,2.144,1.113,2.144,2.505v3.418c0,1.357-0.474,2.48-2.144,2.48
									H56.628z M57.37,69.047h1.147c1.094,0,1.401-0.781,1.401-1.719v-3.75c0-0.967-0.308-1.743-1.401-1.743H57.37V69.047z"/>
								<path fill="#604543" d="M61.955,69.643v-8.403h2.93v0.596h-2.188v3.184h1.562v0.562h-1.562v3.467h2.188v0.596H61.955z"/>
								<path fill="#604543" d="M65.896,69.643v-8.403h2.241c1.46,0,1.802,1.006,1.802,2.173c0,0.859-0.249,1.699-1.172,2.036
									l1.299,4.194h-0.791l-1.226-4.102h-1.411v4.102H65.896z M66.638,64.945h1.494c0.889,0,1.064-0.771,1.064-1.558
									c0-0.835-0.195-1.553-1.064-1.553h-1.494V64.945z"/>
								<path fill="#604543" d="M70.798,67.616l0.654-0.19c0.103,0.884,0.503,1.753,1.499,1.753c0.767,0,1.196-0.444,1.196-1.216
									c0-0.713-0.518-1.323-1.128-1.968l-1.313-1.382c-0.493-0.522-0.889-1.05-0.889-1.68c0-1.113,0.815-1.812,1.934-1.812
									c1.108,0,1.777,0.645,1.997,1.821l0.015,0.078l-0.625,0.195l-0.01-0.068c-0.122-0.786-0.576-1.431-1.377-1.431
									c-0.713,0-1.216,0.361-1.216,1.118c0,0.474,0.283,0.898,0.688,1.338l1.235,1.343c0.659,0.723,1.396,1.416,1.396,2.383
									c0,1.24-0.859,1.875-1.987,1.875C71.638,69.774,70.974,68.773,70.798,67.616z"/>
							</g>
						</g>
					</g>
				</g>
			</g>
		</g>
	</g>
	<g>
		<g>
			<g>
				<g>
					<g>
						<defs>
							<rect id="SVGID_5_" x="-9.25" y="14.422" width="128.281" height="68.455"/>
						</defs>
						<clipPath id="SVGID_6_">
							<use xlink:href="#SVGID_5_"  overflow="visible"/>
						</clipPath>
						<g clip-path="url(#SVGID_6_)">
							<g>
								<g>
									<g>
										<g>
											<g>
												<defs>
													<rect id="SVGID_7_" x="-9.25" y="14.422" width="128.281" height="68.455"/>
												</defs>
												<clipPath id="SVGID_8_">
													<use xlink:href="#SVGID_7_"  overflow="visible"/>
												</clipPath>
												<g clip-path="url(#SVGID_8_)">
													<g>
														<g opacity="0.5" enable-background="new    ">
															<g>
																<g>
																	<g opacity="0.8">
																		<g>
																			<defs>
																				<rect id="SVGID_9_" x="34.499" y="6.422" width="43.534" height="44.615"/>
																			</defs>
																			<clipPath id="SVGID_10_">
																				<use xlink:href="#SVGID_9_"  overflow="visible"/>
																			</clipPath>
																			<path clip-path="url(#SVGID_10_)" fill="#604543" d="M45.359,28.256h14.394V26.4H45.359V28.256z M59.794,22.716
																				H45.403v1.84h14.391V22.716z M45.347,31.897h14.436v-1.91H45.347V31.897z M44.612,42.854
																				c0.068,2.688,2.102,4.604,4.439,4.695c3.067,0.12,4.7-1.984,4.993-4.357c0.291-2.361-2.1-5.08-4.508-5.031
																				C47.026,38.202,44.902,39.585,44.612,42.854 M43.499,50.037v-35.6h9.528c1.917,0,3.834,0.031,5.75-0.015
																				c0.795-0.019,1.16,0.194,1.367,1.039c0.84,3.457,1.774,6.891,2.729,10.517c2.033-1.112,4.025-2.204,6.154-3.367
																				v27.426H43.499z"/>
																		</g>
																	</g>
																</g>
															</g>
														</g>
														<g>
															<g>
																<defs>
																	<rect id="SVGID_11_" x="-9.25" y="14.422" width="128.281" height="68.455"/>
																</defs>
																<clipPath id="SVGID_12_">
																	<use xlink:href="#SVGID_11_"  overflow="visible"/>
																</clipPath>
																<g clip-path="url(#SVGID_12_)">
																	<g>
																		<g>
																			<g>
																				<defs>
																					<rect id="SVGID_13_" x="-9.25" y="14.422" width="128.281" height="68.455"/>
																				</defs>
																				<clipPath id="SVGID_14_">
																					<use xlink:href="#SVGID_13_"  overflow="visible"/>
																				</clipPath>
																				<g clip-path="url(#SVGID_14_)">
																					<g>
																						<g>
																							<g>
																								<g>
																									<g>
																										<defs>
																											<rect id="SVGID_15_" x="60.375" y="14.683" width="8.745" height="9.192"/>
																										</defs>
																										<clipPath id="SVGID_16_">
																											<use xlink:href="#SVGID_15_"  overflow="visible"/>
																										</clipPath>
																									</g>
																								</g>
																							</g>
																						</g>
																					</g>
																				</g>
																			</g>
																		</g>
																	</g>
																</g>
															</g>
														</g>
													</g>
												</g>
											</g>
										</g>
									</g>
								</g>
							</g>
						</g>
						<g clip-path="url(#SVGID_6_)">
							<g>
								<defs>
									
										<rect id="SVGID_17_" x="60.664" y="15.14" transform="matrix(0.998 0.064 -0.064 0.998 1.3963 -4.1213)" width="8.744" height="9.193"/>
								</defs>
								<clipPath id="SVGID_18_">
									<use xlink:href="#SVGID_17_"  overflow="visible"/>
								</clipPath>
								<g opacity="0.5" clip-path="url(#SVGID_18_)">
									<g>
										<defs>
											
												<rect id="SVGID_19_" x="60.663" y="15.144" transform="matrix(0.998 0.0639 -0.0639 0.998 1.3951 -4.1177)" width="8.744" height="9.192"/>
										</defs>
										<clipPath id="SVGID_20_">
											<use xlink:href="#SVGID_19_"  overflow="visible"/>
										</clipPath>
										<g clip-path="url(#SVGID_20_)">
											<g opacity="0.8">
												<g>
													<defs>
														
															<rect id="SVGID_21_" x="51.888" y="7.146" transform="matrix(0.998 0.064 -0.064 0.998 1.1731 -4.1428)" width="26.745" height="18.193"/>
													</defs>
													<clipPath id="SVGID_22_">
														<use xlink:href="#SVGID_21_"  overflow="visible"/>
													</clipPath>
													<path clip-path="url(#SVGID_22_)" fill="none" stroke="#604543" stroke-miterlimit="10" d="M68.361,21.255
														c-1.68,0.779-3.193,1.481-4.863,2.256c-0.564-2.427-1.109-4.76-1.723-7.377C64.08,17.924,66.145,19.529,68.361,21.255z
														"/>
												</g>
											</g>
										</g>
									</g>
								</g>
							</g>
						</g>
					</g>
				</g>
			</g>
		</g>
	</g>
</g>
</svg>
