<svg xmlns="http://www.w3.org/2000/svg" xmlns:xlink="http://www.w3.org/1999/xlink" width="27.31" height="27.31" viewBox="0 0 27.31 27.31"><defs><style>.cls-1{fill:none;}.cls-2{fill:#fff;}.cls-3{clip-path:url(#clip-path);}.cls-4{fill:#c73b19;}</style><clipPath id="clip-path" transform="translate(0)"><rect class="cls-1" width="27.31" height="27.31"/></clipPath></defs><title>Asset 2</title><g id="Layer_2" data-name="Layer 2"><g id="Layer_2-2" data-name="Layer 2"><path class="cls-2" d="M13.66,27.31A13.66,13.66,0,1,0,0,13.66,13.65,13.65,0,0,0,13.66,27.31" transform="translate(0)"/><g class="cls-3"><path class="cls-4" d="M13,10.08A4.76,4.76,0,0,1,16.78,5.4a4.89,4.89,0,0,1,3.1.4,1,1,0,0,1,.17.1c.39.25.4.51,0,.74L18.19,7.71c-.38.23-.89.38-1.08.72s0,.84-.07,1.26a1.28,1.28,0,0,0,.94,1.6c.4.15.76.55,1.14.55s.72-.39,1.08-.6c.55-.32,1.1-.65,1.66-1,.13-.08.39-.13.45-.07a.72.72,0,0,1,.15.51,4.44,4.44,0,0,1-1.2,2.55,4.58,4.58,0,0,1-5,1.34A4.6,4.6,0,0,1,13,10.86l0-.2Z" transform="translate(0)"/><path class="cls-4" d="M12.66,12.13a5.72,5.72,0,0,0,3.05,3l-.25.26-6.9,6.9a1.37,1.37,0,0,1-2.12,0c-.35-.35-.7-.69-1-1.05a1.29,1.29,0,0,1,0-1.92Q9,15.77,12.57,12.19S12.61,12.17,12.66,12.13Zm-3.79,7.5a.69.69,0,0,0-1.37,0,.68.68,0,0,0,.67.67A.69.69,0,0,0,8.87,19.63Z" transform="translate(0)"/></g></g></g></svg>