<?xml version="1.0" encoding="UTF-8" standalone="no"?>
<!DOCTYPE svg PUBLIC "-//W3C//DTD SVG 1.1//EN"
 "http://www.w3.org/Graphics/SVG/1.1/DTD/svg11.dtd">
<!-- Generated by graphviz version 2.40.1 (20161225.0304)
 -->
<!-- Title: dependencies Pages: 1 -->
<svg width="504pt" height="284pt"
 viewBox="0.00 0.00 504.00 284.00" xmlns="http://www.w3.org/2000/svg" xmlns:xlink="http://www.w3.org/1999/xlink">
<g id="graph0" class="graph" transform="scale(1 1) rotate(0) translate(4 280)">
<title>dependencies</title>
<polygon fill="#ffffff" stroke="transparent" points="-4,4 -4,-280 500,-280 500,4 -4,4"/>
<text text-anchor="start" x="227.0091" y="-42.4" font-family="sans-serif" font-weight="bold" font-size="14.00" fill="#000000">Legend</text>
<polygon fill="#ffffb3" stroke="transparent" points="14,-10 14,-30 34,-30 34,-10 14,-10"/>
<text text-anchor="start" x="37.629" y="-15.4" font-family="sans-serif" font-size="14.00" fill="#000000"> &#160;Declarations</text>
<polygon fill="#8dd3c7" stroke="transparent" points="127,-10 127,-30 147,-30 147,-10 127,-10"/>
<text text-anchor="start" x="150.7251" y="-15.4" font-family="sans-serif" font-size="14.00" fill="#000000"> &#160;Module</text>
<polygon fill="#80b1d3" stroke="transparent" points="213,-10 213,-30 233,-30 233,-10 213,-10"/>
<text text-anchor="start" x="236.7812" y="-15.4" font-family="sans-serif" font-size="14.00" fill="#000000"> &#160;Bootstrap</text>
<polygon fill="#fdb462" stroke="transparent" points="310,-10 310,-30 330,-30 330,-10 310,-10"/>
<text text-anchor="start" x="333.6732" y="-15.4" font-family="sans-serif" font-size="14.00" fill="#000000"> &#160;Providers</text>
<polygon fill="#fb8072" stroke="transparent" points="406,-10 406,-30 426,-30 426,-10 406,-10"/>
<text text-anchor="start" x="429.7258" y="-15.4" font-family="sans-serif" font-size="14.00" fill="#000000"> &#160;Exports</text>
<g id="clust1" class="cluster">
<title>cluster_DataTableModule</title>
<polygon fill="none" stroke="#000000" stroke-dasharray="1,5" points="17.5,-70 17.5,-268 478.5,-268 478.5,-70 17.5,-70"/>
</g>
<g id="clust2" class="cluster">
<title>cluster_DataTableModule_declarations</title>
<polygon fill="none" stroke="#000000" points="34.5,-78 34.5,-130 464.5,-130 464.5,-78 34.5,-78"/>
</g>
<g id="clust8" class="cluster">
<title>cluster_DataTableModule_exports</title>
<polygon fill="none" stroke="#000000" points="25.5,-208 25.5,-260 470.5,-260 470.5,-208 25.5,-208"/>
</g>
<!-- BootstrapPaginator -->
<g id="node1" class="node">
<title>BootstrapPaginator</title>
<polygon fill="#ffffb3" stroke="#000000" points="456.5912,-122 332.4088,-122 332.4088,-86 456.5912,-86 456.5912,-122"/>
<text text-anchor="middle" x="394.5" y="-99.8" font-family="Times,serif" font-size="14.00" fill="#000000">BootstrapPaginator</text>
</g>
<!-- DataTableModule -->
<g id="node5" class="node">
<title>DataTableModule</title>
<polygon fill="#8dd3c7" stroke="#000000" points="237.3487,-187 234.3487,-191 213.3487,-191 210.3487,-187 119.6513,-187 119.6513,-151 237.3487,-151 237.3487,-187"/>
<text text-anchor="middle" x="178.5" y="-164.8" font-family="Times,serif" font-size="14.00" fill="#000000">DataTableModule</text>
</g>
<!-- BootstrapPaginator&#45;&gt;DataTableModule -->
<g id="edge1" class="edge">
<title>BootstrapPaginator&#45;&gt;DataTableModule</title>
<path fill="none" stroke="#000000" d="M415.9319,-122.0225C415.9319,-139.3734 415.9319,-163 415.9319,-163 415.9319,-163 247.4961,-163 247.4961,-163"/>
<polygon fill="#000000" stroke="#000000" points="247.4961,-159.5001 237.4961,-163 247.4961,-166.5001 247.4961,-159.5001"/>
</g>
<!-- DataTable -->
<g id="node2" class="node">
<title>DataTable</title>
<polygon fill="#ffffb3" stroke="#000000" points="314.7994,-122 240.2006,-122 240.2006,-86 314.7994,-86 314.7994,-122"/>
<text text-anchor="middle" x="277.5" y="-99.8" font-family="Times,serif" font-size="14.00" fill="#000000">DataTable</text>
</g>
<!-- DataTable&#45;&gt;DataTableModule -->
<g id="edge2" class="edge">
<title>DataTable&#45;&gt;DataTableModule</title>
<path fill="none" stroke="#000000" d="M240.0805,-104C234.1944,-104 230.0088,-104 230.0088,-104 230.0088,-104 230.0088,-140.8939 230.0088,-140.8939"/>
<polygon fill="#000000" stroke="#000000" points="226.5089,-140.8938 230.0088,-150.8939 233.5089,-140.8939 226.5089,-140.8938"/>
</g>
<!-- DefaultSorter -->
<g id="node3" class="node">
<title>DefaultSorter</title>
<polygon fill="#ffffb3" stroke="#000000" points="222.6868,-122 130.3132,-122 130.3132,-86 222.6868,-86 222.6868,-122"/>
<text text-anchor="middle" x="176.5" y="-99.8" font-family="Times,serif" font-size="14.00" fill="#000000">DefaultSorter</text>
</g>
<!-- DefaultSorter&#45;&gt;DataTableModule -->
<g id="edge3" class="edge">
<title>DefaultSorter&#45;&gt;DataTableModule</title>
<path fill="none" stroke="#000000" d="M176.5,-122.1061C176.5,-122.1061 176.5,-140.991 176.5,-140.991"/>
<polygon fill="#000000" stroke="#000000" points="173.0001,-140.9909 176.5,-150.991 180.0001,-140.991 173.0001,-140.9909"/>
</g>
<!-- Paginator -->
<g id="node4" class="node">
<title>Paginator</title>
<polygon fill="#ffffb3" stroke="#000000" points="112.1545,-122 42.8455,-122 42.8455,-86 112.1545,-86 112.1545,-122"/>
<text text-anchor="middle" x="77.5" y="-99.8" font-family="Times,serif" font-size="14.00" fill="#000000">Paginator</text>
</g>
<!-- Paginator&#45;&gt;DataTableModule -->
<g id="edge4" class="edge">
<title>Paginator&#45;&gt;DataTableModule</title>
<path fill="none" stroke="#000000" d="M112.5134,-104C119.6316,-104 124.9912,-104 124.9912,-104 124.9912,-104 124.9912,-140.8939 124.9912,-140.8939"/>
<polygon fill="#000000" stroke="#000000" points="121.4913,-140.8938 124.9912,-150.8939 128.4913,-140.8939 121.4913,-140.8938"/>
</g>
<!-- BootstrapPaginator  -->
<g id="node6" class="node">
<title>BootstrapPaginator </title>
<polygon fill="#fb8072" stroke="#000000" points="462.0919,-252 334.9081,-252 334.9081,-216 462.0919,-216 462.0919,-252"/>
<text text-anchor="middle" x="398.5" y="-229.8" font-family="Times,serif" font-size="14.00" fill="#000000">BootstrapPaginator </text>
</g>
<!-- DataTableModule&#45;&gt;BootstrapPaginator  -->
<g id="edge5" class="edge">
<title>DataTableModule&#45;&gt;BootstrapPaginator </title>
<path fill="none" stroke="#000000" stroke-dasharray="5,2" d="M237.5519,-175C295.5259,-175 375.3181,-175 375.3181,-175 375.3181,-175 375.3181,-205.9775 375.3181,-205.9775"/>
<polygon fill="#000000" stroke="#000000" points="371.8182,-205.9774 375.3181,-215.9775 378.8182,-205.9775 371.8182,-205.9774"/>
</g>
<!-- DataTable  -->
<g id="node7" class="node">
<title>DataTable </title>
<polygon fill="#fb8072" stroke="#000000" points="316.2991,-252 238.7009,-252 238.7009,-216 316.2991,-216 316.2991,-252"/>
<text text-anchor="middle" x="277.5" y="-229.8" font-family="Times,serif" font-size="14.00" fill="#000000">DataTable </text>
</g>
<!-- DataTableModule&#45;&gt;DataTable  -->
<g id="edge6" class="edge">
<title>DataTableModule&#45;&gt;DataTable </title>
<path fill="none" stroke="#000000" stroke-dasharray="5,2" d="M228.8838,-187.1061C228.8838,-206.3391 228.8838,-234 228.8838,-234 228.8838,-234 229.8212,-234 229.8212,-234"/>
<polygon fill="#000000" stroke="#000000" points="228.2575,-237.5001 238.2575,-234 228.2575,-230.5001 228.2575,-237.5001"/>
</g>
<!-- DefaultSorter  -->
<g id="node8" class="node">
<title>DefaultSorter </title>
<polygon fill="#fb8072" stroke="#000000" points="220.1871,-252 124.8129,-252 124.8129,-216 220.1871,-216 220.1871,-252"/>
<text text-anchor="middle" x="172.5" y="-229.8" font-family="Times,serif" font-size="14.00" fill="#000000">DefaultSorter </text>
</g>
<!-- DataTableModule&#45;&gt;DefaultSorter  -->
<g id="edge7" class="edge">
<title>DataTableModule&#45;&gt;DefaultSorter </title>
<path fill="none" stroke="#000000" stroke-dasharray="5,2" d="M172.5,-187.1061C172.5,-187.1061 172.5,-205.991 172.5,-205.991"/>
<polygon fill="#000000" stroke="#000000" points="169.0001,-205.9909 172.5,-215.991 176.0001,-205.991 169.0001,-205.9909"/>
</g>
<!-- Paginator  -->
<g id="node9" class="node">
<title>Paginator </title>
<polygon fill="#fb8072" stroke="#000000" points="107.1538,-252 33.8462,-252 33.8462,-216 107.1538,-216 107.1538,-252"/>
<text text-anchor="middle" x="70.5" y="-229.8" font-family="Times,serif" font-size="14.00" fill="#000000">Paginator </text>
</g>
<!-- DataTableModule&#45;&gt;Paginator  -->
<g id="edge8" class="edge">
<title>DataTableModule&#45;&gt;Paginator </title>
<path fill="none" stroke="#000000" stroke-dasharray="5,2" d="M119.4227,-169C96.1515,-169 74.875,-169 74.875,-169 74.875,-169 74.875,-205.8939 74.875,-205.8939"/>
<polygon fill="#000000" stroke="#000000" points="71.3751,-205.8938 74.875,-215.8939 78.3751,-205.8939 71.3751,-205.8938"/>
</g>
</g>
</svg>
