<svg id="Layer_1" data-name="Layer 1" xmlns="http://www.w3.org/2000/svg" width="0.35in" height="0.35in" viewBox="0 0 25 25"><defs><style>.cls-1{fill:#4d7573;}</style></defs><title>Global-icon</title><path class="cls-1" d="M75.47,76A12.62,12.62,0,0,1,63,63.25,12.18,12.18,0,0,1,75,51h.54a12.5,12.5,0,1,1,0,25Zm-2.33-6a23.89,23.89,0,0,0,2.36,4,24,24,0,0,0,2.37-4Zm-5.83,0a10.53,10.53,0,0,0,5.57,3.69A24.47,24.47,0,0,1,71,70ZM80,70a24.38,24.38,0,0,1-1.91,3.68A10.6,10.6,0,0,0,83.74,70Zm.7-2H85a10.54,10.54,0,0,0,1-4H81.45A18.29,18.29,0,0,1,80.74,68Zm-8.4,0h6.33a16.62,16.62,0,0,0,.81-4h-8A16.16,16.16,0,0,0,72.34,68Zm-6.27,0h4.2a18.31,18.31,0,0,1-.72-4H65A10.91,10.91,0,0,0,66.07,68Zm15.39-6H85.9a10.4,10.4,0,0,0-1.46-4H80.71A16.06,16.06,0,0,1,81.46,62Zm-9.93,0h8a13.77,13.77,0,0,0-.87-4H72.4A13.77,13.77,0,0,0,71.53,62Zm-6.45,0h4.47a16.06,16.06,0,0,1,.75-4H66.44A9.9,9.9,0,0,0,65.08,62Zm14.84-6h2.91a10.43,10.43,0,0,0-4.41-2.57A18.09,18.09,0,0,1,79.92,56Zm-6.59,0h4.35a17.77,17.77,0,0,0-2.13-3h-.09A17.38,17.38,0,0,0,73.33,56ZM68,56h3.08a17.68,17.68,0,0,1,1.53-2.6A10.34,10.34,0,0,0,68,56Z" transform="translate(-63 -51)"/></svg>