<?xml version="1.0" encoding="utf-8"?>
<!-- Generator: Adobe Illustrator 16.0.0, SVG Export Plug-In . SVG Version: 6.00 Build 0)  -->
<!DOCTYPE svg PUBLIC "-//W3C//DTD SVG 1.1//EN" "http://www.w3.org/Graphics/SVG/1.1/DTD/svg11.dtd">
<svg version="1.1" id="Layer_1" xmlns="http://www.w3.org/2000/svg" xmlns:xlink="http://www.w3.org/1999/xlink" x="0px" y="0px"
	 width="28.38px" height="28.38px" viewBox="-0.002 -0.065 28.38 28.38" enable-background="new -0.002 -0.065 28.38 28.38"
	 xml:space="preserve">
<g>
	<g>
		<defs>
			<rect id="SVGID_1_" x="-0.25" y="-8.375" width="46.885" height="42.75"/>
		</defs>
		<clipPath id="SVGID_2_">
			<use xlink:href="#SVGID_1_"  overflow="visible"/>
		</clipPath>
		<path clip-path="url(#SVGID_2_)" fill="#5D8C86" d="M14.25,27.875c7.525,0,13.625-6.1,13.625-13.625
			c0-7.525-6.1-13.625-13.625-13.625c-7.525,0-13.625,6.1-13.625,13.625C0.625,21.775,6.725,27.875,14.25,27.875"/>
	</g>
</g>
<rect x="8.875" y="5.125" fill="none" width="23.75" height="19.875"/>
<g enable-background="new    ">
	<path fill="#FFFFFF" d="M9.461,22.703v-3.018l4.277-6.123c0.801-1.143,1.699-2.5,1.699-3.936c0-0.762-0.361-1.875-1.289-1.875
		c-1.445,0-1.309,2.627-1.309,3.594H9.471v-1.104c0-3.125,1.26-5.459,4.678-5.459c3.008,0,4.668,1.904,4.668,4.844
		c0,2.021-0.908,3.799-2.08,5.439c-1.074,1.504-2.363,2.891-3.389,4.258h5.469v3.379H9.461z"/>
</g>
</svg>
