<?xml version="1.0" encoding="utf-8"?>
<!-- Generator: Adobe Illustrator 16.0.0, SVG Export Plug-In . SVG Version: 6.00 Build 0)  -->
<!DOCTYPE svg PUBLIC "-//W3C//DTD SVG 1.1//EN" "http://www.w3.org/Graphics/SVG/1.1/DTD/svg11.dtd">
<svg version="1.1" id="Layer_1" xmlns="http://www.w3.org/2000/svg" xmlns:xlink="http://www.w3.org/1999/xlink" x="0px" y="0px"
	 width="110px" height="80px" viewBox="0 0 110 80" enable-background="new 0 0 110 80" xml:space="preserve">
<rect y="-1.5" fill="#D2C1AB" width="110" height="84.5"/>
<path opacity="0.5" fill="#816C6B" enable-background="new    " d="M32.409,11.654v34.571c4,0.012,7.519,0.062,11.403,0.012
	c0.934-0.012,1.325,0.316,1.811,1.063c2.028,3.115,3.985,6.193,6.052,9.285c0.206,0.308,0.734,0.601,0.734,1.188V45.654h26v-34
	H32.409z M37.076,39.965c-0.552,0-1-0.447-1-1c0-0.553,0.448-1,1-1c0.552,0,1,0.447,1,1C38.076,39.518,37.628,39.965,37.076,39.965z
	 M37.076,33.965c-0.552,0-1-0.448-1-1c0-0.552,0.448-1,1-1c0.552,0,1,0.448,1,1C38.076,33.517,37.628,33.965,37.076,33.965z
	 M37.076,27.965c-0.552,0-1-0.448-1-1c0-0.552,0.448-1,1-1c0.552,0,1,0.448,1,1C38.076,27.517,37.628,27.965,37.076,27.965z
	 M37.076,21.965c-0.552,0-1-0.448-1-1c0-0.552,0.448-1,1-1c0.552,0,1,0.448,1,1C38.076,21.517,37.628,21.965,37.076,21.965z
	 M73.409,40.654h-32v-3h32V40.654z M73.409,33.654h-32v-2h32V33.654z M73.409,27.654h-32v-2h32V27.654z M73.409,21.654h-32v-2h32
	V21.654z"/>
<g opacity="0.5">
	<g>
		<path fill="#604543" d="M23.886,69.666v-5.85h0.737v0.541c0.4-0.477,0.884-0.674,1.333-0.674c0.396,0,0.845,0.271,1.011,0.664
			c0.41-0.467,0.942-0.664,1.289-0.664c0.581,0,1.152,0.455,1.152,1.094v4.889h-0.732V64.93c0-0.513-0.298-0.703-0.635-0.703
			c-0.293,0-0.669,0.185-0.962,0.478v4.966h-0.732v-4.74c0-0.514-0.298-0.695-0.654-0.695c-0.332,0-0.757,0.225-1.074,0.58v4.855
			L23.886,69.666L23.886,69.666z"/>
		<path fill="#604543" d="M30.531,71.126v-0.601c0.796-0.058,1.128-0.268,1.128-0.635c0-0.166-0.015-0.449-0.054-0.693l-1.27-5.377
			h0.791l0.967,5.029l0.947-5.033h0.791l-1.465,6.254c-0.205,0.791-0.815,1.022-1.821,1.056H30.531z"/>
	</g>
	<g>
		<path fill="#604543" d="M34.703,69.666v-8.402h0.571l2.661,6.654v-6.654h0.63v8.402h-0.557l-2.666-6.514v6.514H34.703z"/>
		<path fill="#604543" d="M39.859,67.229v-3.521c0-1.421,0.513-2.563,2.144-2.563s2.144,1.146,2.144,2.563v3.521
			c0,1.412-0.474,2.568-2.144,2.568S39.859,68.641,39.859,67.229z M43.404,67.396v-3.854c0-0.996-0.308-1.802-1.401-1.802
			c-1.093,0-1.401,0.806-1.401,1.802v3.854c0,0.996,0.308,1.807,1.401,1.807C43.096,69.203,43.404,68.393,43.404,67.396z"/>
		<path fill="#604543" d="M46.192,69.666v-7.809h-1.636V61.26h4.028v0.598h-1.65v7.81L46.192,69.666L46.192,69.666z"/>
		<path fill="#604543" d="M49.122,69.666v-8.402h0.742v8.402H49.122z"/>
		<path fill="#604543" d="M51.294,69.666v-8.402h2.93v0.596h-2.188v3.187h1.562v0.562h-1.562v4.062L51.294,69.666L51.294,69.666z"/>
		<path fill="#604543" d="M54.766,69.666v-8.402h0.742v8.402H54.766z"/>
		<path fill="#604543" d="M56.809,67.229v-3.521c0-1.421,0.502-2.563,2.133-2.563c1.517,0,1.976,1.146,1.976,2.563v0.342H60.21
			v-0.508c0-1.024-0.289-1.802-1.269-1.802c-1.094,0-1.392,0.775-1.392,1.802v3.853c0,1.025,0.298,1.811,1.392,1.811
			c0.979,0,1.269-0.781,1.269-1.811v-0.576h0.707v0.41c0,1.412-0.42,2.568-1.976,2.568C57.271,69.798,56.809,68.641,56.809,67.229z"
			/>
		<path fill="#604543" d="M62.466,69.666h-0.745c0.784-3.896,0.872-4.502,1.659-8.402h0.968l1.659,8.402h-0.752l-0.42-2.188h-1.938
			L62.466,69.666z M62.982,66.984h1.759l-0.884-4.95L62.982,66.984z"/>
		<path fill="#604543" d="M67.58,69.666v-7.809h-1.637V61.26h4.029v0.598h-1.65v7.81L67.58,69.666L67.58,69.666z"/>
		<path fill="#604543" d="M70.51,69.666v-8.402h0.742v8.402H70.51z"/>
		<path fill="#604543" d="M72.551,67.229v-3.521c0-1.421,0.514-2.563,2.145-2.563c1.634,0,2.146,1.146,2.146,2.563v3.521
			c0,1.412-0.474,2.568-2.146,2.568C73.025,69.797,72.551,68.641,72.551,67.229z M76.096,67.396v-3.854
			c0-0.996-0.308-1.802-1.4-1.802c-1.094,0-1.398,0.806-1.398,1.802v3.854c0,0.996,0.311,1.807,1.398,1.807
			C75.788,69.203,76.096,68.393,76.096,67.396z"/>
	</g>
	<g>
		<path fill="#604543" d="M78.146,69.666v-8.402h0.567l2.661,6.654v-6.654h0.63v8.402H81.45l-2.666-6.514v6.514H78.146z"/>
	</g>
	<g>
		<path fill="#604543" d="M83.119,67.641l0.654-0.188c0.103,0.884,0.502,1.753,1.498,1.753c0.768,0,1.193-0.444,1.193-1.22
			c0-0.713-0.518-1.319-1.128-1.967l-1.312-1.383c-0.492-0.521-0.889-1.05-0.889-1.68c0-1.113,0.812-1.812,1.934-1.812
			c1.106,0,1.777,0.646,1.996,1.821l0.017,0.078l-0.625,0.194l-0.01-0.067c-0.122-0.786-0.576-1.431-1.378-1.431
			c-0.713,0-1.217,0.361-1.217,1.117c0,0.475,0.283,0.896,0.688,1.338l1.232,1.344c0.658,0.723,1.396,1.416,1.396,2.383
			c0,1.24-0.857,1.875-1.986,1.875C83.959,69.798,83.295,68.797,83.119,67.641z"/>
	</g>
</g>
</svg>
