<?xml version="1.0" encoding="utf-8"?>
<!-- Generator: Adobe Illustrator 16.0.0, SVG Export Plug-In . SVG Version: 6.00 Build 0)  -->
<!DOCTYPE svg PUBLIC "-//W3C//DTD SVG 1.1//EN" "http://www.w3.org/Graphics/SVG/1.1/DTD/svg11.dtd">
<svg version="1.1" id="Layer_1" xmlns="http://www.w3.org/2000/svg" xmlns:xlink="http://www.w3.org/1999/xlink" x="0px" y="0px"
	 width="34.5px" height="30px" viewBox="0 0 34.5 30" enable-background="new 0 0 34.5 30" xml:space="preserve">
<g>
	<defs>
		<rect id="SVGID_1_" x="0.75" y="0.652" width="33" height="28.723"/>
	</defs>
	<clipPath id="SVGID_2_">
		<use xlink:href="#SVGID_1_"  overflow="visible"/>
	</clipPath>
	<g clip-path="url(#SVGID_2_)">
		<defs>
			<rect id="SVGID_3_" x="0.75" y="0.653" width="33" height="28.722"/>
		</defs>
		<clipPath id="SVGID_4_">
			<use xlink:href="#SVGID_3_"  overflow="visible"/>
		</clipPath>
		<path clip-path="url(#SVGID_4_)" fill="#F65334" d="M17.274,21.615c-1.285-0.015-2.382,1.02-2.402,2.264
			c-0.02,1.278,1.029,2.351,2.322,2.372c1.324,0.021,2.419-1.011,2.434-2.293C19.643,22.691,18.576,21.631,17.274,21.615
			 M17.259,4.514c-1.149,0-2.16,0.808-2.321,1.915c-0.054,0.372,0.009,0.767,0.061,1.146c0.232,1.692,0.479,3.383,0.721,5.072
			c0.252,1.753,0.508,3.505,0.755,5.258c0.061,0.434,0.428,0.814,0.807,0.807c0.382-0.01,0.702-0.366,0.743-0.819
			c0.021-0.251,0.051-0.501,0.086-0.749c0.228-1.555,0.457-3.11,0.686-4.665c0.207-1.409,0.414-2.819,0.619-4.229
			c0.074-0.509,0.202-1.018,0.197-1.525C19.605,5.527,18.492,4.513,17.259,4.514 M0.75,27.545v-0.82
			c0.173-0.448,0.29-0.926,0.528-1.338c1.361-2.353,2.749-4.69,4.129-7.032c2.862-4.855,5.722-9.713,8.592-14.564
			c0.444-0.752,0.88-1.52,1.418-2.205c0.791-1.011,2.019-1.2,3.028-0.565c0.49,0.308,0.851,0.734,1.14,1.221
			c0.871,1.469,1.74,2.938,2.606,4.408c3.307,5.609,6.619,11.215,9.912,16.832c0.613,1.047,1.375,2.028,1.646,3.244v0.82
			c-0.174,0.329-0.293,0.705-0.534,0.979c-0.567,0.649-1.364,0.847-2.2,0.847c-9.166,0.007-18.333,0.005-27.499,0.005
			C2.081,29.374,1.249,28.821,0.75,27.545"/>
		<g opacity="0.8" clip-path="url(#SVGID_4_)">
			<g>
				<defs>
					<rect id="SVGID_5_" x="5.917" y="-3.486" width="22.697" height="23.196"/>
				</defs>
				<clipPath id="SVGID_6_">
					<use xlink:href="#SVGID_5_"  overflow="visible"/>
				</clipPath>
				<path clip-path="url(#SVGID_6_)" fill="#F1E6D6" d="M17.259,4.514c1.233-0.001,2.346,1.014,2.355,2.21
					c0.003,0.508-0.124,1.017-0.198,1.524c-0.205,1.41-0.412,2.82-0.619,4.23c-0.229,1.554-0.457,3.109-0.685,4.664
					c-0.036,0.249-0.065,0.499-0.088,0.749c-0.041,0.453-0.361,0.81-0.742,0.819c-0.379,0.009-0.746-0.373-0.807-0.807
					c-0.247-1.753-0.503-3.505-0.755-5.258c-0.242-1.69-0.489-3.38-0.721-5.072c-0.052-0.379-0.115-0.773-0.061-1.146
					C15.099,5.321,16.109,4.515,17.259,4.514"/>
			</g>
		</g>
		<g opacity="0.8" clip-path="url(#SVGID_4_)">
			<g>
				<defs>
					<rect id="SVGID_7_" x="5.872" y="13.615" width="22.757" height="13.636"/>
				</defs>
				<clipPath id="SVGID_8_">
					<use xlink:href="#SVGID_7_"  overflow="visible"/>
				</clipPath>
				<path clip-path="url(#SVGID_8_)" fill="#F1E6D6" d="M17.274,21.615c1.302,0.016,2.369,1.076,2.354,2.342
					c-0.015,1.283-1.11,2.315-2.434,2.294c-1.293-0.021-2.342-1.094-2.322-2.372C14.893,22.635,15.99,21.601,17.274,21.615"/>
			</g>
		</g>
	</g>
</g>
</svg>
